<svg xmlns="http://www.w3.org/2000/svg" xmlns:xlink="http://www.w3.org/1999/xlink" width="200" zoomAndPan="magnify" viewBox="0 0 150 74.999997" height="100" preserveAspectRatio="xMidYMid meet" version="1.0"><defs><g/><clipPath id="f402bf8d51"><path d="M 16.097656 25.417969 L 69.890625 25.417969 L 69.890625 58.371094 L 16.097656 58.371094 Z M 16.097656 25.417969 " clip-rule="nonzero"/></clipPath><clipPath id="b581fefd7e"><path d="M 38.191406 30.703125 L 47.40625 30.703125 L 47.40625 58.371094 L 38.191406 58.371094 Z M 38.191406 30.703125 " clip-rule="nonzero"/></clipPath><clipPath id="3db03cc5ce"><path d="M 40 0.460938 L 46 0.460938 L 46 4 L 40 4 Z M 40 0.460938 " clip-rule="nonzero"/></clipPath><clipPath id="7c6bdfe386"><rect x="0" width="85" y="0" height="73"/></clipPath></defs><g transform="matrix(1, 0, 0, 1, 32, 2)"><g clip-path="url(#7c6bdfe386)"><g fill="#ffffff" fill-opacity="1"><g transform="translate(15.560611, 5.202607)"><g><path d="M 4.1875 9.453125 C 3.851562 9.890625 3.507812 10.195312 3.15625 10.375 C 2.8125 10.5625 2.472656 10.703125 2.140625 10.796875 C 1.929688 10.859375 1.84375 10.953125 1.875 11.078125 C 1.90625 11.203125 2.050781 11.390625 2.3125 11.640625 L 2.140625 11.859375 C 1.878906 11.648438 1.566406 11.398438 1.203125 11.109375 C 0.835938 10.816406 0.351562 10.441406 -0.25 9.984375 L -0.0625 9.75 C 0.257812 9.945312 0.546875 10.101562 0.796875 10.21875 C 1.046875 10.332031 1.289062 10.40625 1.53125 10.4375 C 1.769531 10.46875 2.03125 10.445312 2.3125 10.375 C 2.601562 10.332031 2.867188 10.234375 3.109375 10.078125 C 3.359375 9.921875 3.578125 9.722656 3.765625 9.484375 C 4.035156 9.128906 4.171875 8.75 4.171875 8.34375 C 4.171875 7.945312 4.066406 7.546875 3.859375 7.140625 C 3.648438 6.734375 3.367188 6.335938 3.015625 5.953125 C 2.671875 5.578125 2.28125 5.21875 1.84375 4.875 C 1.394531 4.539062 0.929688 4.253906 0.453125 4.015625 C -0.015625 3.785156 -0.46875 3.628906 -0.90625 3.546875 C -1.34375 3.460938 -1.753906 3.476562 -2.140625 3.59375 C -2.535156 3.71875 -2.863281 3.953125 -3.125 4.296875 C -3.289062 4.523438 -3.414062 4.78125 -3.5 5.0625 C -3.59375 5.351562 -3.625 5.632812 -3.59375 5.90625 C -3.582031 6.320312 -3.460938 6.691406 -3.234375 7.015625 C -3.003906 7.335938 -2.660156 7.703125 -2.203125 8.109375 L -2.390625 8.34375 C -3.023438 7.863281 -3.539062 7.476562 -3.9375 7.1875 C -4.332031 6.90625 -4.664062 6.664062 -4.9375 6.46875 L -4.765625 6.25 C -4.441406 6.4375 -4.222656 6.523438 -4.109375 6.515625 C -3.992188 6.515625 -3.925781 6.40625 -3.90625 6.1875 C -3.894531 5.8125 -3.847656 5.429688 -3.765625 5.046875 C -3.679688 4.671875 -3.476562 4.269531 -3.15625 3.84375 C -2.613281 3.132812 -2 2.625 -1.3125 2.3125 C -0.625 2.007812 0.0976562 1.914062 0.859375 2.03125 C 1.628906 2.15625 2.390625 2.503906 3.140625 3.078125 C 3.890625 3.648438 4.425781 4.296875 4.75 5.015625 C 5.082031 5.742188 5.203125 6.488281 5.109375 7.25 C 5.023438 8.019531 4.71875 8.753906 4.1875 9.453125 Z M 4.1875 9.453125 "/></g></g></g><g fill="#ffffff" fill-opacity="1"><g transform="translate(9.000316, 14.50006)"><g><path d="M 6.734375 7.4375 L -1.6875 7.546875 C -1.988281 7.566406 -2.21875 7.625 -2.375 7.71875 C -2.539062 7.8125 -2.648438 7.910156 -2.703125 8.015625 L -2.9375 7.921875 C -2.832031 7.703125 -2.71875 7.429688 -2.59375 7.109375 C -2.476562 6.796875 -2.363281 6.476562 -2.25 6.15625 C -2.113281 5.789062 -1.984375 5.445312 -1.859375 5.125 C -1.742188 4.800781 -1.660156 4.539062 -1.609375 4.34375 L -1.375 4.4375 C -1.5 4.84375 -1.519531 5.125 -1.4375 5.28125 C -1.363281 5.4375 -1.097656 5.507812 -0.640625 5.5 L 5.578125 5.515625 L 5.796875 5.84375 L 1.796875 2.34375 C 1.441406 2 1.128906 1.757812 0.859375 1.625 C 0.585938 1.488281 0.363281 1.425781 0.1875 1.4375 C 0.0195312 1.457031 -0.117188 1.539062 -0.234375 1.6875 C -0.359375 1.832031 -0.472656 2.03125 -0.578125 2.28125 L -0.8125 2.1875 C -0.6875 1.925781 -0.582031 1.675781 -0.5 1.4375 C -0.414062 1.207031 -0.328125 0.972656 -0.234375 0.734375 C -0.171875 0.554688 -0.109375 0.390625 -0.046875 0.234375 C 0.00390625 0.0859375 0.0390625 -0.046875 0.0625 -0.171875 L 0.296875 -0.078125 C 0.265625 0.0976562 0.304688 0.300781 0.421875 0.53125 C 0.546875 0.769531 0.789062 1.050781 1.15625 1.375 L 7.046875 6.609375 C 6.992188 6.734375 6.941406 6.867188 6.890625 7.015625 C 6.835938 7.160156 6.785156 7.300781 6.734375 7.4375 Z M 1.484375 6.40625 L 1.25 6.328125 L 2.546875 2.8125 L 2.734375 3.015625 Z M 1.484375 6.40625 "/></g></g></g><g fill="#ffffff" fill-opacity="1"><g transform="translate(5.55966, 24.824825)"><g><path d="M 8.34375 8.625 C 7.914062 8.5625 7.503906 8.507812 7.109375 8.46875 C 6.710938 8.4375 6.410156 8.410156 6.203125 8.390625 C 6.015625 8.378906 5.835938 8.375 5.671875 8.375 C 5.503906 8.375 5.363281 8.367188 5.25 8.359375 L 5.28125 8.078125 C 5.976562 7.992188 6.539062 7.863281 6.96875 7.6875 C 7.394531 7.507812 7.703125 7.28125 7.890625 7 C 8.085938 6.726562 8.195312 6.398438 8.21875 6.015625 L 8.234375 5.734375 L 1.09375 5.265625 C 0.75 5.242188 0.488281 5.257812 0.3125 5.3125 C 0.144531 5.375 0.03125 5.5 -0.03125 5.6875 C -0.09375 5.875 -0.140625 6.15625 -0.171875 6.53125 L -0.421875 6.515625 C -0.398438 6.253906 -0.367188 5.90625 -0.328125 5.46875 C -0.296875 5.039062 -0.265625 4.59375 -0.234375 4.125 C -0.210938 3.675781 -0.1875 3.242188 -0.15625 2.828125 C -0.132812 2.421875 -0.125 2.09375 -0.125 1.84375 L 0.125 1.859375 C 0.113281 2.234375 0.125 2.519531 0.15625 2.71875 C 0.195312 2.914062 0.300781 3.050781 0.46875 3.125 C 0.632812 3.207031 0.890625 3.257812 1.234375 3.28125 L 8.375 3.75 L 8.390625 3.46875 C 8.410156 3.082031 8.34375 2.742188 8.1875 2.453125 C 8.039062 2.160156 7.769531 1.898438 7.375 1.671875 C 6.976562 1.441406 6.429688 1.226562 5.734375 1.03125 L 5.75 0.734375 C 5.863281 0.765625 6.003906 0.785156 6.171875 0.796875 C 6.335938 0.816406 6.515625 0.832031 6.703125 0.84375 C 6.910156 0.863281 7.210938 0.878906 7.609375 0.890625 C 8.003906 0.898438 8.421875 0.898438 8.859375 0.890625 C 8.816406 1.273438 8.773438 1.695312 8.734375 2.15625 C 8.691406 2.613281 8.65625 3.066406 8.625 3.515625 C 8.601562 3.972656 8.578125 4.382812 8.546875 4.75 C 8.523438 5.125 8.5 5.539062 8.46875 6 C 8.4375 6.457031 8.410156 6.914062 8.390625 7.375 C 8.367188 7.832031 8.351562 8.25 8.34375 8.625 Z M 8.34375 8.625 "/></g></g></g><g fill="#ffffff" fill-opacity="1"><g transform="translate(5.224787, 35.684043)"><g><path d="M 10.21875 5.046875 C 9.84375 5.097656 9.484375 5.148438 9.140625 5.203125 C 8.804688 5.265625 8.550781 5.316406 8.375 5.359375 C 8.21875 5.398438 8.066406 5.441406 7.921875 5.484375 C 7.773438 5.523438 7.65625 5.5625 7.5625 5.59375 L 7.5 5.3125 C 8.070312 5.09375 8.515625 4.859375 8.828125 4.609375 C 9.140625 4.367188 9.332031 4.097656 9.40625 3.796875 C 9.488281 3.492188 9.488281 3.160156 9.40625 2.796875 L 9.296875 2.296875 C 9.242188 2.046875 9.179688 1.863281 9.109375 1.75 C 9.046875 1.632812 8.945312 1.566406 8.8125 1.546875 C 8.6875 1.535156 8.492188 1.5625 8.234375 1.625 L 1.859375 3.03125 C 1.617188 3.082031 1.4375 3.140625 1.3125 3.203125 C 1.195312 3.273438 1.132812 3.375 1.125 3.5 C 1.113281 3.632812 1.132812 3.828125 1.1875 4.078125 L 1.328125 4.671875 C 1.410156 5.035156 1.5625 5.335938 1.78125 5.578125 C 2 5.828125 2.320312 6.007812 2.75 6.125 C 3.175781 6.25 3.734375 6.285156 4.421875 6.234375 L 4.484375 6.53125 C 4.210938 6.5625 3.863281 6.625 3.4375 6.71875 C 3.257812 6.757812 2.992188 6.820312 2.640625 6.90625 C 2.296875 6.988281 1.945312 7.09375 1.59375 7.21875 C 1.519531 6.800781 1.425781 6.328125 1.3125 5.796875 C 1.195312 5.273438 1.09375 4.8125 1 4.40625 C 0.957031 4.207031 0.898438 3.945312 0.828125 3.625 C 0.753906 3.300781 0.675781 2.957031 0.59375 2.59375 C 0.519531 2.226562 0.4375 1.859375 0.34375 1.484375 C 0.257812 1.109375 0.175781 0.75 0.09375 0.40625 L 0.34375 0.359375 C 0.414062 0.617188 0.488281 0.804688 0.5625 0.921875 C 0.632812 1.046875 0.75 1.113281 0.90625 1.125 C 1.070312 1.144531 1.300781 1.125 1.59375 1.0625 L 7.671875 -0.28125 C 7.972656 -0.34375 8.1875 -0.414062 8.3125 -0.5 C 8.445312 -0.582031 8.523438 -0.695312 8.546875 -0.84375 C 8.578125 -0.988281 8.566406 -1.191406 8.515625 -1.453125 L 8.78125 -1.515625 C 8.84375 -1.160156 8.910156 -0.796875 8.984375 -0.421875 C 9.066406 -0.046875 9.144531 0.320312 9.21875 0.6875 C 9.289062 1.050781 9.363281 1.394531 9.4375 1.71875 C 9.507812 2.039062 9.566406 2.300781 9.609375 2.5 C 9.691406 2.875 9.785156 3.300781 9.890625 3.78125 C 10.003906 4.257812 10.113281 4.679688 10.21875 5.046875 Z M 5.609375 4.078125 C 5.609375 4.078125 5.566406 4.082031 5.484375 4.09375 C 5.398438 4.113281 5.359375 4.125 5.359375 4.125 L 4.875 1.984375 C 4.875 1.984375 4.914062 1.972656 5 1.953125 C 5.082031 1.941406 5.125 1.9375 5.125 1.9375 Z M 7.296875 4.078125 C 6.828125 4.148438 6.46875 4.210938 6.21875 4.265625 C 5.976562 4.328125 5.753906 4.378906 5.546875 4.421875 C 5.347656 4.472656 5.125 4.523438 4.875 4.578125 C 4.632812 4.640625 4.285156 4.738281 3.828125 4.875 L 3.765625 4.59375 C 4.035156 4.488281 4.28125 4.351562 4.5 4.1875 C 4.71875 4.03125 4.878906 3.832031 4.984375 3.59375 C 5.097656 3.351562 5.117188 3.066406 5.046875 2.734375 L 5.296875 2.6875 C 5.347656 2.9375 5.441406 3.132812 5.578125 3.28125 C 5.722656 3.425781 5.890625 3.53125 6.078125 3.59375 C 6.273438 3.664062 6.472656 3.710938 6.671875 3.734375 C 6.878906 3.765625 7.066406 3.78125 7.234375 3.78125 Z M 7.296875 4.078125 "/></g></g></g><g fill="#ffffff" fill-opacity="1"><g transform="translate(7.778201, 45.836235)"><g><path d="M 7.984375 -3.921875 C 8.078125 -3.742188 8.203125 -3.492188 8.359375 -3.171875 C 8.523438 -2.847656 8.691406 -2.539062 8.859375 -2.25 C 9.054688 -1.882812 9.25 -1.539062 9.4375 -1.21875 C 9.632812 -0.894531 9.769531 -0.664062 9.84375 -0.53125 C 10.21875 0.144531 10.453125 0.75 10.546875 1.28125 C 10.648438 1.820312 10.617188 2.285156 10.453125 2.671875 C 10.296875 3.054688 10.019531 3.359375 9.625 3.578125 C 9.375 3.710938 9.09375 3.796875 8.78125 3.828125 C 8.46875 3.867188 8.132812 3.828125 7.78125 3.703125 C 7.4375 3.578125 7.082031 3.332031 6.71875 2.96875 C 6.351562 2.613281 5.992188 2.117188 5.640625 1.484375 L 5.046875 0.421875 L 5.265625 0.3125 L 5.796875 1.265625 C 6.035156 1.691406 6.296875 1.96875 6.578125 2.09375 C 6.867188 2.226562 7.171875 2.265625 7.484375 2.203125 C 7.804688 2.140625 8.140625 2.015625 8.484375 1.828125 C 9.066406 1.515625 9.457031 1.164062 9.65625 0.78125 C 9.863281 0.394531 9.828125 -0.046875 9.546875 -0.546875 C 9.390625 -0.828125 9.226562 -0.976562 9.0625 -1 C 8.894531 -1.019531 8.617188 -0.921875 8.234375 -0.703125 L 2.78125 2.296875 C 2.519531 2.441406 2.332031 2.570312 2.21875 2.6875 C 2.113281 2.800781 2.070312 2.925781 2.09375 3.0625 C 2.125 3.207031 2.191406 3.398438 2.296875 3.640625 L 2.078125 3.765625 C 1.992188 3.554688 1.867188 3.300781 1.703125 3 C 1.535156 2.707031 1.363281 2.40625 1.1875 2.09375 C 1 1.75 0.816406 1.414062 0.640625 1.09375 C 0.472656 0.78125 0.328125 0.539062 0.203125 0.375 L 0.421875 0.25 C 0.578125 0.46875 0.707031 0.625 0.8125 0.71875 C 0.914062 0.820312 1.046875 0.859375 1.203125 0.828125 C 1.359375 0.796875 1.566406 0.707031 1.828125 0.5625 L 7.28125 -2.4375 C 7.550781 -2.59375 7.738281 -2.726562 7.84375 -2.84375 C 7.945312 -2.957031 7.988281 -3.085938 7.96875 -3.234375 C 7.945312 -3.378906 7.875 -3.566406 7.75 -3.796875 Z M 5.234375 0.3125 C 5.398438 0.625 5.535156 0.898438 5.640625 1.140625 C 5.742188 1.390625 5.832031 1.609375 5.90625 1.796875 C 5.988281 1.984375 6.066406 2.144531 6.140625 2.28125 C 6.453125 2.976562 6.582031 3.550781 6.53125 4 C 6.476562 4.445312 6.25 4.835938 5.84375 5.171875 L 4.859375 6.0625 C 4.597656 6.289062 4.425781 6.472656 4.34375 6.609375 C 4.269531 6.742188 4.269531 6.878906 4.34375 7.015625 C 4.414062 7.117188 4.488281 7.1875 4.5625 7.21875 C 4.632812 7.257812 4.726562 7.289062 4.84375 7.3125 L 4.796875 7.5625 C 4.460938 7.476562 4.179688 7.347656 3.953125 7.171875 C 3.734375 7.003906 3.535156 6.757812 3.359375 6.4375 C 3.140625 6.039062 3.039062 5.664062 3.0625 5.3125 C 3.09375 4.96875 3.316406 4.640625 3.734375 4.328125 L 4.71875 3.5 C 4.988281 3.269531 5.21875 3.054688 5.40625 2.859375 C 5.601562 2.660156 5.734375 2.457031 5.796875 2.25 C 5.859375 2.050781 5.828125 1.835938 5.703125 1.609375 L 5.046875 0.421875 Z M 5.234375 0.3125 "/></g></g></g><g fill="#ffffff" fill-opacity="1"><g transform="translate(13.509749, 55.161465)"><g><path d="M 9.453125 -2.859375 L 9.25 -2.6875 C 9.070312 -2.875 8.914062 -3 8.78125 -3.0625 C 8.644531 -3.125 8.507812 -3.117188 8.375 -3.046875 C 8.25 -2.984375 8.070312 -2.847656 7.84375 -2.640625 L 3.265625 1.5625 C 3.035156 1.769531 2.878906 1.941406 2.796875 2.078125 C 2.722656 2.222656 2.710938 2.359375 2.765625 2.484375 C 2.816406 2.617188 2.925781 2.785156 3.09375 2.984375 L 2.90625 3.15625 C 2.769531 2.988281 2.582031 2.773438 2.34375 2.515625 C 2.113281 2.265625 1.878906 2.007812 1.640625 1.75 C 1.367188 1.457031 1.113281 1.179688 0.875 0.921875 C 0.632812 0.660156 0.4375 0.457031 0.28125 0.3125 L 0.46875 0.140625 C 0.664062 0.328125 0.828125 0.453125 0.953125 0.515625 C 1.078125 0.585938 1.210938 0.585938 1.359375 0.515625 C 1.503906 0.453125 1.691406 0.316406 1.921875 0.109375 L 6.5 -4.09375 C 6.726562 -4.300781 6.875 -4.472656 6.9375 -4.609375 C 7.007812 -4.742188 7.019531 -4.882812 6.96875 -5.03125 C 6.914062 -5.175781 6.800781 -5.34375 6.625 -5.53125 L 6.828125 -5.703125 C 6.960938 -5.535156 7.144531 -5.316406 7.375 -5.046875 C 7.613281 -4.785156 7.867188 -4.507812 8.140625 -4.21875 C 8.378906 -3.957031 8.617188 -3.703125 8.859375 -3.453125 C 9.097656 -3.203125 9.296875 -3.003906 9.453125 -2.859375 Z M 9.453125 -2.859375 "/></g></g></g><g fill="#ffffff" fill-opacity="1"><g transform="translate(18.297848, 60.343754)"><g><path d="M 12.140625 -2.640625 L 12 -2.421875 C 11.757812 -2.535156 11.554688 -2.585938 11.390625 -2.578125 C 11.222656 -2.566406 11.054688 -2.476562 10.890625 -2.3125 C 10.734375 -2.15625 10.539062 -1.898438 10.3125 -1.546875 L 6.453125 4.296875 C 6.378906 4.234375 6.296875 4.171875 6.203125 4.109375 C 6.117188 4.054688 6.023438 4 5.921875 3.9375 L 5.171875 -4.8125 L 2.53125 -0.796875 C 2.269531 -0.410156 2.09375 -0.101562 2 0.125 C 1.90625 0.363281 1.898438 0.570312 1.984375 0.75 C 2.066406 0.925781 2.253906 1.140625 2.546875 1.390625 L 2.40625 1.59375 C 2.28125 1.476562 2.109375 1.347656 1.890625 1.203125 C 1.679688 1.066406 1.484375 0.9375 1.296875 0.8125 C 1.128906 0.695312 0.960938 0.585938 0.796875 0.484375 C 0.628906 0.378906 0.484375 0.296875 0.359375 0.234375 L 0.5 0.03125 C 0.75 0.144531 0.953125 0.191406 1.109375 0.171875 C 1.273438 0.160156 1.441406 0.0703125 1.609375 -0.09375 C 1.773438 -0.257812 1.96875 -0.507812 2.1875 -0.84375 L 5.296875 -5.546875 C 5.460938 -5.804688 5.566406 -6.007812 5.609375 -6.15625 C 5.660156 -6.3125 5.644531 -6.445312 5.5625 -6.5625 C 5.476562 -6.6875 5.328125 -6.820312 5.109375 -6.96875 L 5.25 -7.1875 C 5.363281 -7.09375 5.5 -6.988281 5.65625 -6.875 C 5.820312 -6.769531 5.988281 -6.660156 6.15625 -6.546875 C 6.320312 -6.441406 6.484375 -6.335938 6.640625 -6.234375 C 6.804688 -6.140625 6.945312 -6.054688 7.0625 -5.984375 L 7.828125 1.703125 L 10 -1.59375 C 10.25 -1.976562 10.421875 -2.285156 10.515625 -2.515625 C 10.609375 -2.742188 10.609375 -2.953125 10.515625 -3.140625 C 10.429688 -3.328125 10.25 -3.535156 9.96875 -3.765625 L 10.109375 -3.984375 C 10.234375 -3.890625 10.398438 -3.765625 10.609375 -3.609375 C 10.828125 -3.460938 11.035156 -3.328125 11.234375 -3.203125 C 11.390625 -3.085938 11.550781 -2.976562 11.71875 -2.875 C 11.894531 -2.78125 12.035156 -2.703125 12.140625 -2.640625 Z M 12.140625 -2.640625 "/></g></g></g><g fill="#ffffff" fill-opacity="1"><g transform="translate(28.262685, 66.439711)"><g><path d="M 7.3125 -7.375 C 7.863281 -7.21875 8.289062 -7.015625 8.59375 -6.765625 C 8.90625 -6.515625 9.164062 -6.25 9.375 -5.96875 C 9.445312 -5.851562 9.515625 -5.785156 9.578125 -5.765625 C 9.734375 -5.722656 9.898438 -5.941406 10.078125 -6.421875 L 10.375 -6.34375 C 10.269531 -6.019531 10.148438 -5.640625 10.015625 -5.203125 C 9.890625 -4.765625 9.722656 -4.171875 9.515625 -3.421875 L 9.21875 -3.5 C 9.300781 -4 9.332031 -4.445312 9.3125 -4.84375 C 9.289062 -5.238281 9.164062 -5.609375 8.9375 -5.953125 C 8.789062 -6.179688 8.585938 -6.390625 8.328125 -6.578125 C 8.078125 -6.765625 7.804688 -6.898438 7.515625 -6.984375 C 7.078125 -7.109375 6.664062 -7.097656 6.28125 -6.953125 C 5.894531 -6.804688 5.546875 -6.5625 5.234375 -6.21875 C 4.929688 -5.875 4.660156 -5.472656 4.421875 -5.015625 C 4.191406 -4.554688 4.003906 -4.0625 3.859375 -3.53125 C 3.453125 -2.070312 3.351562 -0.953125 3.5625 -0.171875 C 3.78125 0.609375 4.265625 1.101562 5.015625 1.3125 C 5.203125 1.363281 5.375 1.390625 5.53125 1.390625 C 5.695312 1.390625 5.835938 1.363281 5.953125 1.3125 C 6.078125 1.257812 6.171875 1.191406 6.234375 1.109375 C 6.304688 1.035156 6.363281 0.914062 6.40625 0.75 L 6.734375 -0.421875 C 6.835938 -0.796875 6.882812 -1.078125 6.875 -1.265625 C 6.863281 -1.460938 6.78125 -1.617188 6.625 -1.734375 C 6.46875 -1.847656 6.21875 -1.960938 5.875 -2.078125 L 5.9375 -2.3125 C 6.101562 -2.25 6.304688 -2.179688 6.546875 -2.109375 C 6.785156 -2.046875 7.03125 -1.976562 7.28125 -1.90625 C 7.539062 -1.832031 7.78125 -1.765625 8 -1.703125 C 8.34375 -1.609375 8.65625 -1.523438 8.9375 -1.453125 C 9.21875 -1.378906 9.445312 -1.320312 9.625 -1.28125 L 9.5625 -1.046875 C 9.40625 -1.078125 9.28125 -1.078125 9.1875 -1.046875 C 9.09375 -1.023438 9.015625 -0.945312 8.953125 -0.8125 C 8.890625 -0.675781 8.816406 -0.457031 8.734375 -0.15625 L 8.0625 2.234375 L 7.828125 2.171875 C 7.859375 2.035156 7.863281 1.878906 7.84375 1.703125 C 7.832031 1.523438 7.769531 1.421875 7.65625 1.390625 C 7.601562 1.367188 7.523438 1.359375 7.421875 1.359375 C 7.328125 1.359375 7.164062 1.390625 6.9375 1.453125 C 6.59375 1.535156 6.238281 1.59375 5.875 1.625 C 5.507812 1.65625 5.144531 1.617188 4.78125 1.515625 C 3.851562 1.253906 3.113281 0.859375 2.5625 0.328125 C 2.019531 -0.191406 1.675781 -0.820312 1.53125 -1.5625 C 1.382812 -2.300781 1.4375 -3.128906 1.6875 -4.046875 C 1.945312 -4.960938 2.351562 -5.707031 2.90625 -6.28125 C 3.46875 -6.851562 4.128906 -7.238281 4.890625 -7.4375 C 5.648438 -7.632812 6.457031 -7.613281 7.3125 -7.375 Z M 7.3125 -7.375 "/></g></g></g><g fill="#ffffff" fill-opacity="1"><g transform="translate(39.386724, 68.920725)"><g/></g></g><g fill="#ffffff" fill-opacity="1"><g transform="translate(44.469582, 69.238376)"><g><path d="M 3.171875 -9.515625 L 7.421875 -2.21875 C 7.578125 -1.957031 7.734375 -1.78125 7.890625 -1.6875 C 8.054688 -1.601562 8.195312 -1.5625 8.3125 -1.5625 L 8.34375 -1.3125 C 8.101562 -1.289062 7.8125 -1.253906 7.46875 -1.203125 C 7.132812 -1.148438 6.800781 -1.097656 6.46875 -1.046875 C 6.082031 -0.984375 5.71875 -0.925781 5.375 -0.875 C 5.039062 -0.820312 4.773438 -0.769531 4.578125 -0.71875 L 4.546875 -0.96875 C 4.960938 -1.0625 5.21875 -1.175781 5.3125 -1.3125 C 5.40625 -1.457031 5.335938 -1.734375 5.109375 -2.140625 L 2.078125 -7.546875 L 2.265625 -7.921875 L 1.15625 -2.71875 C 1.039062 -2.238281 0.988281 -1.847656 1 -1.546875 C 1.007812 -1.242188 1.0625 -1.019531 1.15625 -0.875 C 1.257812 -0.738281 1.398438 -0.648438 1.578125 -0.609375 C 1.765625 -0.578125 1.992188 -0.578125 2.265625 -0.609375 L 2.296875 -0.359375 C 2.023438 -0.335938 1.765625 -0.304688 1.515625 -0.265625 C 1.265625 -0.234375 1.007812 -0.195312 0.75 -0.15625 C 0.570312 -0.125 0.398438 -0.09375 0.234375 -0.0625 C 0.078125 -0.0390625 -0.0625 -0.0078125 -0.1875 0.03125 L -0.21875 -0.21875 C -0.0507812 -0.28125 0.101562 -0.414062 0.25 -0.625 C 0.40625 -0.84375 0.53125 -1.195312 0.625 -1.6875 L 2.3125 -9.375 C 2.445312 -9.382812 2.59375 -9.398438 2.75 -9.421875 C 2.90625 -9.453125 3.046875 -9.484375 3.171875 -9.515625 Z M 4.875 -4.421875 L 4.921875 -4.171875 L 1.21875 -3.578125 L 1.296875 -3.859375 Z M 4.875 -4.421875 "/></g></g></g><g fill="#ffffff" fill-opacity="1"><g transform="translate(55.215314, 67.20767)"><g><path d="M 3.890625 -11.8125 L 4 -11.578125 C 3.78125 -11.429688 3.628906 -11.28125 3.546875 -11.125 C 3.472656 -10.96875 3.460938 -10.773438 3.515625 -10.546875 C 3.578125 -10.328125 3.703125 -10.03125 3.890625 -9.65625 L 6.96875 -3.375 C 6.875 -3.34375 6.78125 -3.300781 6.6875 -3.25 C 6.59375 -3.207031 6.5 -3.15625 6.40625 -3.09375 L -1.53125 -6.90625 L 0.59375 -2.59375 C 0.789062 -2.175781 0.960938 -1.863281 1.109375 -1.65625 C 1.265625 -1.457031 1.441406 -1.347656 1.640625 -1.328125 C 1.847656 -1.316406 2.128906 -1.367188 2.484375 -1.484375 L 2.59375 -1.265625 C 2.4375 -1.210938 2.242188 -1.128906 2.015625 -1.015625 C 1.785156 -0.910156 1.566406 -0.804688 1.359375 -0.703125 C 1.179688 -0.617188 1.003906 -0.53125 0.828125 -0.4375 C 0.648438 -0.351562 0.503906 -0.269531 0.390625 -0.1875 L 0.28125 -0.40625 C 0.5 -0.570312 0.644531 -0.726562 0.71875 -0.875 C 0.800781 -1.019531 0.8125 -1.207031 0.75 -1.4375 C 0.6875 -1.664062 0.566406 -1.960938 0.390625 -2.328125 L -2.09375 -7.390625 C -2.226562 -7.671875 -2.347656 -7.863281 -2.453125 -7.96875 C -2.554688 -8.082031 -2.679688 -8.132812 -2.828125 -8.125 C -2.972656 -8.113281 -3.164062 -8.050781 -3.40625 -7.9375 L -3.515625 -8.171875 C -3.390625 -8.222656 -3.234375 -8.285156 -3.046875 -8.359375 C -2.867188 -8.441406 -2.691406 -8.523438 -2.515625 -8.609375 C -2.335938 -8.691406 -2.164062 -8.78125 -2 -8.875 C -1.84375 -8.96875 -1.695312 -9.050781 -1.5625 -9.125 L 5.4375 -5.875 L 3.703125 -9.40625 C 3.492188 -9.820312 3.3125 -10.128906 3.15625 -10.328125 C 3.007812 -10.523438 2.832031 -10.632812 2.625 -10.65625 C 2.425781 -10.675781 2.15625 -10.625 1.8125 -10.5 L 1.703125 -10.734375 C 1.847656 -10.796875 2.039062 -10.878906 2.28125 -10.984375 C 2.519531 -11.085938 2.738281 -11.1875 2.9375 -11.28125 C 3.113281 -11.375 3.289062 -11.46875 3.46875 -11.5625 C 3.644531 -11.65625 3.785156 -11.738281 3.890625 -11.8125 Z M 3.890625 -11.8125 "/></g></g></g><g fill="#ffffff" fill-opacity="1"><g transform="translate(65.44768, 61.712079)"><g><path d="M -0.21875 -12 C 0.0390625 -11.65625 0.300781 -11.335938 0.5625 -11.046875 C 0.820312 -10.753906 1.023438 -10.535156 1.171875 -10.390625 C 1.296875 -10.242188 1.421875 -10.113281 1.546875 -10 C 1.671875 -9.882812 1.773438 -9.785156 1.859375 -9.703125 L 1.65625 -9.515625 C 1.070312 -9.929688 0.566406 -10.21875 0.140625 -10.375 C -0.285156 -10.53125 -0.660156 -10.570312 -0.984375 -10.5 C -1.316406 -10.4375 -1.625 -10.273438 -1.90625 -10.015625 L -2.109375 -9.828125 L 2.796875 -4.609375 C 3.035156 -4.359375 3.234375 -4.191406 3.390625 -4.109375 C 3.546875 -4.035156 3.710938 -4.046875 3.890625 -4.140625 C 4.066406 -4.234375 4.296875 -4.40625 4.578125 -4.65625 L 4.75 -4.46875 C 4.550781 -4.300781 4.296875 -4.066406 3.984375 -3.765625 C 3.671875 -3.472656 3.34375 -3.171875 3 -2.859375 C 2.664062 -2.535156 2.347656 -2.234375 2.046875 -1.953125 C 1.742188 -1.671875 1.507812 -1.441406 1.34375 -1.265625 L 1.171875 -1.453125 C 1.429688 -1.710938 1.613281 -1.925781 1.71875 -2.09375 C 1.820312 -2.269531 1.84375 -2.441406 1.78125 -2.609375 C 1.726562 -2.773438 1.582031 -2.984375 1.34375 -3.234375 L -3.5625 -8.453125 L -3.78125 -8.25 C -4.050781 -7.988281 -4.226562 -7.695312 -4.3125 -7.375 C -4.40625 -7.050781 -4.382812 -6.671875 -4.25 -6.234375 C -4.125 -5.804688 -3.867188 -5.285156 -3.484375 -4.671875 L -3.703125 -4.46875 C -3.773438 -4.5625 -3.863281 -4.671875 -3.96875 -4.796875 C -4.082031 -4.921875 -4.203125 -5.054688 -4.328125 -5.203125 C -4.472656 -5.347656 -4.6875 -5.554688 -4.96875 -5.828125 C -5.25 -6.109375 -5.546875 -6.394531 -5.859375 -6.6875 C -5.566406 -6.945312 -5.25 -7.226562 -4.90625 -7.53125 C -4.570312 -7.832031 -4.238281 -8.140625 -3.90625 -8.453125 C -3.570312 -8.773438 -3.273438 -9.0625 -3.015625 -9.3125 C -2.742188 -9.5625 -2.441406 -9.84375 -2.109375 -10.15625 C -1.773438 -10.476562 -1.441406 -10.800781 -1.109375 -11.125 C -0.773438 -11.445312 -0.476562 -11.738281 -0.21875 -12 Z M -0.21875 -12 "/></g></g></g><g fill="#ffffff" fill-opacity="1"><g transform="translate(72.852391, 54.087738)"><g><path d="M -5.078125 -8.46875 L -4.84375 -8.328125 C -4.988281 -8.109375 -5.078125 -7.921875 -5.109375 -7.765625 C -5.140625 -7.617188 -5.101562 -7.488281 -5 -7.375 C -4.90625 -7.269531 -4.726562 -7.128906 -4.46875 -6.953125 L 0.734375 -3.546875 C 0.984375 -3.378906 1.179688 -3.269531 1.328125 -3.21875 C 1.484375 -3.175781 1.617188 -3.195312 1.734375 -3.28125 C 1.847656 -3.375 1.988281 -3.523438 2.15625 -3.734375 L 2.359375 -3.59375 C 2.210938 -3.414062 2.046875 -3.179688 1.859375 -2.890625 C 1.671875 -2.609375 1.484375 -2.320312 1.296875 -2.03125 C 1.066406 -1.6875 0.851562 -1.367188 0.65625 -1.078125 C 0.46875 -0.785156 0.328125 -0.546875 0.234375 -0.359375 L 0.03125 -0.5 C 0.15625 -0.726562 0.234375 -0.910156 0.265625 -1.046875 C 0.296875 -1.191406 0.257812 -1.328125 0.15625 -1.453125 C 0.0625 -1.578125 -0.109375 -1.722656 -0.359375 -1.890625 L -5.5625 -5.296875 C -5.820312 -5.472656 -6.023438 -5.578125 -6.171875 -5.609375 C -6.316406 -5.648438 -6.445312 -5.625 -6.5625 -5.53125 C -6.6875 -5.445312 -6.820312 -5.300781 -6.96875 -5.09375 L -7.203125 -5.234375 C -7.078125 -5.410156 -6.910156 -5.640625 -6.703125 -5.921875 C -6.503906 -6.210938 -6.289062 -6.53125 -6.0625 -6.875 C -5.875 -7.164062 -5.691406 -7.457031 -5.515625 -7.75 C -5.335938 -8.039062 -5.191406 -8.28125 -5.078125 -8.46875 Z M -5.078125 -8.46875 "/></g></g></g><g fill="#ffffff" fill-opacity="1"><g transform="translate(76.626414, 48.218242)"><g><path d="M -8.203125 -3.453125 C -8.117188 -3.648438 -8.007812 -3.914062 -7.875 -4.25 C -7.738281 -4.582031 -7.613281 -4.910156 -7.5 -5.234375 C -7.351562 -5.609375 -7.21875 -5.972656 -7.09375 -6.328125 C -6.976562 -6.691406 -6.894531 -6.945312 -6.84375 -7.09375 C -6.445312 -8.1875 -5.929688 -8.921875 -5.296875 -9.296875 C -4.660156 -9.679688 -4.003906 -9.75 -3.328125 -9.5 C -3.046875 -9.394531 -2.769531 -9.226562 -2.5 -9 C -2.226562 -8.78125 -2.003906 -8.492188 -1.828125 -8.140625 C -1.660156 -7.785156 -1.582031 -7.347656 -1.59375 -6.828125 C -1.601562 -6.304688 -1.734375 -5.703125 -1.984375 -5.015625 L -2.421875 -3.8125 L -2.65625 -3.90625 L -2.265625 -5 C -2.097656 -5.457031 -2.070312 -5.84375 -2.1875 -6.15625 C -2.3125 -6.476562 -2.53125 -6.75 -2.84375 -6.96875 C -3.15625 -7.1875 -3.507812 -7.367188 -3.90625 -7.515625 C -4.65625 -7.796875 -5.253906 -7.890625 -5.703125 -7.796875 C -6.148438 -7.703125 -6.472656 -7.390625 -6.671875 -6.859375 C -6.773438 -6.554688 -6.78125 -6.332031 -6.6875 -6.1875 C -6.59375 -6.050781 -6.335938 -5.910156 -5.921875 -5.765625 L -0.15625 -3.640625 C 0.144531 -3.523438 0.382812 -3.472656 0.5625 -3.484375 C 0.738281 -3.492188 0.878906 -3.578125 0.984375 -3.734375 C 1.097656 -3.898438 1.222656 -4.160156 1.359375 -4.515625 L 1.625 -4.421875 C 1.519531 -4.171875 1.394531 -3.859375 1.25 -3.484375 C 1.101562 -3.109375 0.953125 -2.707031 0.796875 -2.28125 C 0.671875 -1.945312 0.550781 -1.613281 0.4375 -1.28125 C 0.332031 -0.957031 0.234375 -0.660156 0.140625 -0.390625 L -0.09375 -0.484375 C -0.0195312 -0.742188 0.015625 -0.941406 0.015625 -1.078125 C 0.0234375 -1.222656 -0.03125 -1.34375 -0.15625 -1.4375 C -0.289062 -1.539062 -0.5 -1.644531 -0.78125 -1.75 L -6.609375 -3.90625 C -6.910156 -4.007812 -7.132812 -4.0625 -7.28125 -4.0625 C -7.4375 -4.070312 -7.5625 -4.019531 -7.65625 -3.90625 C -7.757812 -3.789062 -7.859375 -3.609375 -7.953125 -3.359375 Z M -8.203125 -3.453125 "/></g></g></g><g fill="#ffffff" fill-opacity="1"><g transform="translate(79.950061, 38.222367)"><g><path d="M -8.578125 -5.21875 L -0.53125 -7.734375 C -0.226562 -7.828125 -0.015625 -7.941406 0.109375 -8.078125 C 0.234375 -8.210938 0.304688 -8.335938 0.328125 -8.453125 L 0.578125 -8.4375 C 0.535156 -8.1875 0.503906 -7.890625 0.484375 -7.546875 C 0.460938 -7.210938 0.441406 -6.875 0.421875 -6.53125 C 0.390625 -6.144531 0.363281 -5.78125 0.34375 -5.4375 C 0.320312 -5.09375 0.3125 -4.820312 0.3125 -4.625 L 0.0625 -4.640625 C 0.0703125 -5.066406 0.015625 -5.34375 -0.109375 -5.46875 C -0.234375 -5.59375 -0.515625 -5.585938 -0.953125 -5.453125 L -6.90625 -3.71875 L -7.21875 -3.96875 L -2.390625 -1.734375 C -1.941406 -1.515625 -1.570312 -1.375 -1.28125 -1.3125 C -0.988281 -1.257812 -0.757812 -1.265625 -0.59375 -1.328125 C -0.4375 -1.398438 -0.320312 -1.519531 -0.25 -1.6875 C -0.175781 -1.863281 -0.125 -2.082031 -0.09375 -2.34375 L 0.15625 -2.328125 C 0.113281 -2.046875 0.0820312 -1.78125 0.0625 -1.53125 C 0.0507812 -1.28125 0.0351562 -1.023438 0.015625 -0.765625 C 0.00390625 -0.578125 -0.00390625 -0.398438 -0.015625 -0.234375 C -0.0234375 -0.078125 -0.0234375 0.0625 -0.015625 0.1875 L -0.265625 0.171875 C -0.285156 -0.00390625 -0.382812 -0.191406 -0.5625 -0.390625 C -0.738281 -0.585938 -1.050781 -0.789062 -1.5 -1 L -8.640625 -4.34375 C -8.617188 -4.476562 -8.601562 -4.625 -8.59375 -4.78125 C -8.582031 -4.9375 -8.578125 -5.082031 -8.578125 -5.21875 Z M -3.21875 -5.734375 L -2.984375 -5.71875 L -3.234375 -1.984375 L -3.46875 -2.125 Z M -3.21875 -5.734375 "/></g></g></g><g fill="#ffffff" fill-opacity="1"><g transform="translate(80.282498, 27.424904)"><g><path d="M -9.578125 -1.640625 C -9.679688 -2.117188 -9.707031 -2.5 -9.65625 -2.78125 C -9.613281 -3.070312 -9.554688 -3.320312 -9.484375 -3.53125 C -9.441406 -3.65625 -9.410156 -3.75 -9.390625 -3.8125 C -9.378906 -3.875 -9.378906 -3.9375 -9.390625 -4 C -9.410156 -4.082031 -9.46875 -4.128906 -9.5625 -4.140625 C -9.65625 -4.160156 -9.796875 -4.160156 -9.984375 -4.140625 L -10.046875 -4.421875 C -9.878906 -4.453125 -9.6875 -4.484375 -9.46875 -4.515625 C -9.257812 -4.546875 -8.976562 -4.597656 -8.625 -4.671875 C -8.28125 -4.742188 -7.820312 -4.84375 -7.25 -4.96875 L -7.1875 -4.671875 C -7.59375 -4.546875 -7.976562 -4.359375 -8.34375 -4.109375 C -8.71875 -3.867188 -9 -3.570312 -9.1875 -3.21875 C -9.382812 -2.863281 -9.441406 -2.472656 -9.359375 -2.046875 C -9.273438 -1.648438 -9.09375 -1.347656 -8.8125 -1.140625 C -8.539062 -0.929688 -8.210938 -0.867188 -7.828125 -0.953125 C -7.503906 -1.015625 -7.242188 -1.148438 -7.046875 -1.359375 C -6.847656 -1.578125 -6.671875 -1.863281 -6.515625 -2.21875 C -6.359375 -2.582031 -6.164062 -3.03125 -5.9375 -3.5625 C -5.769531 -4 -5.585938 -4.398438 -5.390625 -4.765625 C -5.203125 -5.128906 -4.96875 -5.4375 -4.6875 -5.6875 C -4.414062 -5.9375 -4.054688 -6.109375 -3.609375 -6.203125 C -3.066406 -6.316406 -2.59375 -6.269531 -2.1875 -6.0625 C -1.78125 -5.851562 -1.4375 -5.535156 -1.15625 -5.109375 C -0.882812 -4.691406 -0.691406 -4.207031 -0.578125 -3.65625 C -0.472656 -3.144531 -0.4375 -2.726562 -0.46875 -2.40625 C -0.507812 -2.082031 -0.5625 -1.8125 -0.625 -1.59375 C -0.695312 -1.382812 -0.722656 -1.226562 -0.703125 -1.125 C -0.691406 -1.039062 -0.632812 -0.992188 -0.53125 -0.984375 C -0.4375 -0.972656 -0.296875 -0.972656 -0.109375 -0.984375 L -0.046875 -0.6875 C -0.253906 -0.664062 -0.488281 -0.628906 -0.75 -0.578125 C -1.019531 -0.535156 -1.363281 -0.46875 -1.78125 -0.375 C -2.207031 -0.289062 -2.742188 -0.179688 -3.390625 -0.046875 L -3.4375 -0.34375 C -2.90625 -0.488281 -2.421875 -0.6875 -1.984375 -0.9375 C -1.546875 -1.1875 -1.21875 -1.5 -1 -1.875 C -0.78125 -2.25 -0.722656 -2.695312 -0.828125 -3.21875 C -0.890625 -3.5 -0.992188 -3.738281 -1.140625 -3.9375 C -1.285156 -4.144531 -1.476562 -4.296875 -1.71875 -4.390625 C -1.957031 -4.492188 -2.226562 -4.515625 -2.53125 -4.453125 C -2.863281 -4.378906 -3.140625 -4.234375 -3.359375 -4.015625 C -3.578125 -3.804688 -3.765625 -3.539062 -3.921875 -3.21875 C -4.085938 -2.894531 -4.253906 -2.53125 -4.421875 -2.125 C -4.585938 -1.6875 -4.765625 -1.273438 -4.953125 -0.890625 C -5.140625 -0.503906 -5.375 -0.175781 -5.65625 0.09375 C -5.945312 0.363281 -6.316406 0.546875 -6.765625 0.640625 C -7.285156 0.742188 -7.738281 0.703125 -8.125 0.515625 C -8.507812 0.328125 -8.820312 0.0390625 -9.0625 -0.34375 C -9.3125 -0.726562 -9.484375 -1.160156 -9.578125 -1.640625 Z M -9.578125 -1.640625 "/></g></g></g><g fill="#ffffff" fill-opacity="1"><g transform="translate(78.034444, 17.909684)"><g><path d="M -11.609375 -3.0625 C -11.210938 -3.21875 -10.832031 -3.382812 -10.46875 -3.5625 C -10.113281 -3.738281 -9.84375 -3.875 -9.65625 -3.96875 C -9.488281 -4.050781 -9.332031 -4.132812 -9.1875 -4.21875 C -9.050781 -4.300781 -8.929688 -4.367188 -8.828125 -4.421875 L -8.703125 -4.171875 C -9.265625 -3.734375 -9.679688 -3.328125 -9.953125 -2.953125 C -10.222656 -2.585938 -10.363281 -2.238281 -10.375 -1.90625 C -10.394531 -1.582031 -10.316406 -1.25 -10.140625 -0.90625 L -10.015625 -0.65625 L -3.671875 -3.953125 C -3.359375 -4.109375 -3.144531 -4.253906 -3.03125 -4.390625 C -2.914062 -4.523438 -2.878906 -4.6875 -2.921875 -4.875 C -2.960938 -5.070312 -3.066406 -5.34375 -3.234375 -5.6875 L -3.015625 -5.796875 C -2.898438 -5.566406 -2.742188 -5.253906 -2.546875 -4.859375 C -2.359375 -4.472656 -2.15625 -4.070312 -1.9375 -3.65625 C -1.726562 -3.25 -1.523438 -2.863281 -1.328125 -2.5 C -1.128906 -2.144531 -0.96875 -1.859375 -0.84375 -1.640625 L -1.0625 -1.53125 C -1.25 -1.851562 -1.410156 -2.085938 -1.546875 -2.234375 C -1.679688 -2.390625 -1.835938 -2.457031 -2.015625 -2.4375 C -2.191406 -2.414062 -2.4375 -2.328125 -2.75 -2.171875 L -9.09375 1.125 L -8.96875 1.375 C -8.789062 1.71875 -8.5625 1.972656 -8.28125 2.140625 C -8 2.316406 -7.628906 2.398438 -7.171875 2.390625 C -6.722656 2.378906 -6.144531 2.28125 -5.4375 2.09375 L -5.3125 2.359375 C -5.425781 2.390625 -5.554688 2.441406 -5.703125 2.515625 C -5.847656 2.585938 -6.003906 2.664062 -6.171875 2.75 C -6.359375 2.84375 -6.625 2.988281 -6.96875 3.1875 C -7.320312 3.382812 -7.675781 3.59375 -8.03125 3.8125 C -8.195312 3.46875 -8.378906 3.085938 -8.578125 2.671875 C -8.785156 2.265625 -8.992188 1.859375 -9.203125 1.453125 C -9.410156 1.046875 -9.597656 0.679688 -9.765625 0.359375 C -9.941406 0.0234375 -10.132812 -0.34375 -10.34375 -0.75 C -10.5625 -1.15625 -10.78125 -1.554688 -11 -1.953125 C -11.21875 -2.359375 -11.421875 -2.726562 -11.609375 -3.0625 Z M -11.609375 -3.0625 "/></g></g></g><g fill="#ffffff" fill-opacity="1"><g transform="translate(72.720532, 8.705259)"><g><path d="M -9.53125 2.5625 L -9.34375 2.390625 C -9.175781 2.585938 -9.019531 2.71875 -8.875 2.78125 C -8.738281 2.851562 -8.601562 2.859375 -8.46875 2.796875 C -8.332031 2.734375 -8.144531 2.597656 -7.90625 2.390625 L -3.203125 -1.671875 C -2.972656 -1.867188 -2.816406 -2.03125 -2.734375 -2.15625 C -2.648438 -2.289062 -2.632812 -2.425781 -2.6875 -2.5625 C -2.75 -2.695312 -2.851562 -2.875 -3 -3.09375 L -2.8125 -3.25 C -2.6875 -3.070312 -2.507812 -2.851562 -2.28125 -2.59375 C -2.0625 -2.332031 -1.835938 -2.066406 -1.609375 -1.796875 C -1.335938 -1.492188 -1.085938 -1.207031 -0.859375 -0.9375 C -0.628906 -0.675781 -0.4375 -0.46875 -0.28125 -0.3125 L -0.46875 -0.15625 C -0.664062 -0.34375 -0.820312 -0.472656 -0.9375 -0.546875 C -1.0625 -0.617188 -1.195312 -0.625 -1.34375 -0.5625 C -1.488281 -0.5 -1.675781 -0.367188 -1.90625 -0.171875 L -6.609375 3.890625 C -6.847656 4.097656 -7.003906 4.265625 -7.078125 4.390625 C -7.160156 4.523438 -7.175781 4.664062 -7.125 4.8125 C -7.082031 4.957031 -6.976562 5.128906 -6.8125 5.328125 L -7 5.5 C -7.132812 5.332031 -7.3125 5.109375 -7.53125 4.828125 C -7.75 4.554688 -7.992188 4.269531 -8.265625 3.96875 C -8.492188 3.695312 -8.722656 3.4375 -8.953125 3.1875 C -9.191406 2.9375 -9.382812 2.726562 -9.53125 2.5625 Z M -9.53125 2.5625 "/></g></g></g><g clip-path="url(#f402bf8d51)"><path fill="#ffffff" d="M 69.890625 31.472656 C 69.890625 40.863281 65.078125 49.125 57.789062 53.933594 C 56.460938 54.816406 55.046875 55.578125 53.566406 56.210938 C 50.957031 57.328125 48.132812 58.042969 45.175781 58.28125 C 44.34375 58.347656 43.503906 58.378906 42.652344 58.367188 C 41.941406 58.355469 41.238281 58.320312 40.542969 58.257812 C 37.664062 57.996094 34.914062 57.273438 32.359375 56.164062 C 30.867188 55.519531 29.441406 54.738281 28.101562 53.839844 C 21.054688 49.128906 16.328125 41.179688 16.105469 32.148438 C 16.066406 30.703125 16.148438 29.28125 16.332031 27.894531 C 16.519531 26.488281 17.703125 25.433594 19.121094 25.433594 L 66.867188 25.433594 C 68.269531 25.433594 69.460938 26.464844 69.648438 27.851562 C 69.808594 29.035156 69.890625 30.242188 69.890625 31.472656 " fill-opacity="1" fill-rule="nonzero"/></g><g clip-path="url(#b581fefd7e)"><path fill="#6c1f2b" d="M 47.398438 31.9375 L 47.398438 38.910156 C 47.398438 40.320312 46.75 41.582031 45.734375 42.402344 C 44.835938 43.132812 44.375 44.273438 44.441406 45.429688 L 45.175781 58.28125 C 44.34375 58.347656 43.503906 58.378906 42.652344 58.367188 C 41.941406 58.355469 41.238281 58.320312 40.542969 58.257812 L 41.277344 45.433594 C 41.34375 44.273438 40.882812 43.132812 39.984375 42.402344 C 38.96875 41.582031 38.316406 40.320312 38.316406 38.910156 L 38.316406 31.9375 C 38.316406 31.328125 38.8125 30.832031 39.425781 30.832031 L 39.449219 30.832031 C 40.058594 30.832031 40.554688 31.328125 40.554688 31.9375 L 40.554688 36.953125 C 40.554688 37.277344 40.816406 37.539062 41.140625 37.539062 L 41.152344 37.539062 C 41.476562 37.539062 41.738281 37.277344 41.738281 36.953125 L 41.738281 31.9375 C 41.738281 31.328125 42.234375 30.832031 42.847656 30.832031 L 42.871094 30.832031 C 43.480469 30.832031 43.980469 31.328125 43.980469 31.9375 L 43.980469 36.953125 C 43.980469 37.277344 44.242188 37.539062 44.566406 37.539062 L 44.578125 37.539062 C 44.898438 37.539062 45.160156 37.277344 45.160156 36.953125 L 45.160156 31.9375 C 45.160156 31.328125 45.65625 30.832031 46.269531 30.832031 L 46.292969 30.832031 C 46.90625 30.832031 47.398438 31.328125 47.398438 31.9375 " fill-opacity="1" fill-rule="nonzero"/></g><path fill="#6c1f2b" d="M 32.839844 42.199219 C 32.085938 42.960938 31.664062 43.992188 31.722656 45.066406 L 32.359375 56.164062 C 30.867188 55.519531 29.441406 54.738281 28.101562 53.839844 L 28.601562 45.066406 C 28.664062 43.992188 28.242188 42.960938 27.488281 42.199219 C 26.355469 41.054688 25.621094 39.207031 25.621094 37.121094 C 25.621094 33.644531 27.65625 30.832031 30.164062 30.832031 C 32.671875 30.832031 34.703125 33.644531 34.703125 37.121094 C 34.703125 39.207031 33.96875 41.054688 32.839844 42.199219 " fill-opacity="1" fill-rule="nonzero"/><path fill="#ffffff" d="M 67.59375 23.5625 L 18.394531 23.5625 C 17.839844 23.5625 17.449219 23.015625 17.632812 22.492188 C 21.324219 12.050781 31.285156 4.574219 42.992188 4.574219 C 54.699219 4.574219 64.660156 12.050781 68.355469 22.492188 C 68.539062 23.015625 68.144531 23.5625 67.59375 23.5625 " fill-opacity="1" fill-rule="nonzero"/><path fill="#ffffff" d="M 43.949219 6.609375 L 42.035156 6.609375 L 42.035156 2.539062 L 43.949219 2.539062 L 43.949219 6.609375 " fill-opacity="1" fill-rule="nonzero"/><g clip-path="url(#3db03cc5ce)"><path fill="#ffffff" d="M 43.828125 3.519531 L 42.160156 3.519531 C 41.328125 3.519531 40.652344 2.84375 40.652344 2.011719 L 40.652344 1.984375 C 40.652344 1.152344 41.328125 0.476562 42.160156 0.476562 L 43.828125 0.476562 C 44.65625 0.476562 45.332031 1.152344 45.332031 1.984375 L 45.332031 2.011719 C 45.332031 2.84375 44.65625 3.519531 43.828125 3.519531 " fill-opacity="1" fill-rule="nonzero"/></g><path fill="#6c1f2b" d="M 57.789062 32.835938 L 57.789062 53.933594 C 56.460938 54.816406 55.046875 55.578125 53.566406 56.210938 L 53.820312 51.070312 C 53.878906 49.886719 53.34375 48.773438 52.4375 48.011719 C 51.574219 47.289062 51.011719 46.199219 51.011719 44.960938 L 51.011719 38.789062 C 51.011719 35.792969 52.441406 32.976562 54.851562 31.207031 L 54.890625 31.175781 C 56.109375 30.511719 57.671875 31.28125 57.78125 32.664062 C 57.785156 32.71875 57.789062 32.777344 57.789062 32.835938 " fill-opacity="1" fill-rule="nonzero"/></g></g></svg>