<svg xmlns="http://www.w3.org/2000/svg" xmlns:xlink="http://www.w3.org/1999/xlink" width="200" zoomAndPan="magnify" viewBox="0 0 150 74.999997" height="100" preserveAspectRatio="xMidYMid meet" version="1.0"><defs><g/><clipPath id="32b876c4aa"><path d="M 7.5 33.164062 L 49.238281 33.164062 L 49.238281 58.730469 L 7.5 58.730469 Z M 7.5 33.164062 " clip-rule="nonzero"/></clipPath><clipPath id="d85783e1d9"><path d="M 24.644531 37.265625 L 31.792969 37.265625 L 31.792969 58.730469 L 24.644531 58.730469 Z M 24.644531 37.265625 " clip-rule="nonzero"/></clipPath><clipPath id="7da6ba4b15"><path d="M 26 13.792969 L 31 13.792969 L 31 17 L 26 17 Z M 26 13.792969 " clip-rule="nonzero"/></clipPath><clipPath id="b8c4c10606"><rect x="0" width="82" y="0" height="27"/></clipPath><clipPath id="c1fd949d26"><path d="M 0.320312 8 L 15 8 L 15 23 L 0.320312 23 Z M 0.320312 8 " clip-rule="nonzero"/></clipPath><clipPath id="a6cb463edf"><path d="M 78 6 L 84.800781 6 L 84.800781 23 L 78 23 Z M 78 6 " clip-rule="nonzero"/></clipPath><clipPath id="248a736954"><rect x="0" width="85" y="0" height="28"/></clipPath></defs><g clip-path="url(#32b876c4aa)"><path fill="#6c1f2b" d="M 49.242188 37.859375 C 49.242188 45.148438 45.507812 51.558594 39.851562 55.289062 C 38.820312 55.972656 37.722656 56.566406 36.574219 57.054688 C 34.550781 57.921875 32.359375 58.476562 30.0625 58.660156 C 29.417969 58.714844 28.765625 58.738281 28.105469 58.730469 C 27.554688 58.722656 27.007812 58.695312 26.46875 58.644531 C 24.234375 58.441406 22.101562 57.882812 20.117188 57.019531 C 18.960938 56.519531 17.855469 55.914062 16.816406 55.21875 C 11.347656 51.558594 7.679688 45.390625 7.507812 38.386719 C 7.476562 37.261719 7.539062 36.160156 7.683594 35.082031 C 7.828125 33.996094 8.746094 33.175781 9.847656 33.175781 L 46.894531 33.175781 C 47.980469 33.175781 48.90625 33.976562 49.054688 35.050781 C 49.175781 35.972656 49.242188 36.90625 49.242188 37.859375 " fill-opacity="1" fill-rule="nonzero"/></g><g clip-path="url(#d85783e1d9)"><path fill="#ffffff" d="M 31.789062 38.222656 L 31.789062 43.632812 C 31.789062 44.726562 31.285156 45.703125 30.496094 46.34375 C 29.796875 46.910156 29.441406 47.792969 29.492188 48.691406 L 30.0625 58.660156 C 29.417969 58.714844 28.765625 58.738281 28.105469 58.730469 C 27.554688 58.722656 27.007812 58.695312 26.46875 58.644531 L 27.039062 48.691406 C 27.089844 47.792969 26.734375 46.910156 26.035156 46.34375 C 25.246094 45.703125 24.742188 44.726562 24.742188 43.632812 L 24.742188 38.222656 C 24.742188 37.746094 25.128906 37.363281 25.601562 37.363281 L 25.617188 37.363281 C 26.09375 37.363281 26.480469 37.746094 26.480469 38.222656 L 26.480469 42.113281 C 26.480469 42.363281 26.683594 42.566406 26.933594 42.566406 L 26.941406 42.566406 C 27.191406 42.566406 27.394531 42.363281 27.394531 42.113281 L 27.394531 38.222656 C 27.394531 37.746094 27.78125 37.363281 28.253906 37.363281 L 28.277344 37.363281 C 28.75 37.363281 29.136719 37.746094 29.136719 38.222656 L 29.136719 42.113281 C 29.136719 42.363281 29.339844 42.566406 29.589844 42.566406 L 29.597656 42.566406 C 29.847656 42.566406 30.050781 42.363281 30.050781 42.113281 L 30.050781 38.222656 C 30.050781 37.746094 30.4375 37.363281 30.914062 37.363281 L 30.929688 37.363281 C 31.40625 37.363281 31.789062 37.746094 31.789062 38.222656 " fill-opacity="1" fill-rule="nonzero"/></g><path fill="#ffffff" d="M 20.492188 46.183594 C 19.90625 46.777344 19.578125 47.574219 19.625 48.40625 L 20.117188 57.019531 C 18.960938 56.519531 17.855469 55.914062 16.816406 55.21875 L 17.203125 48.40625 C 17.25 47.574219 16.925781 46.777344 16.339844 46.183594 C 15.460938 45.296875 14.890625 43.863281 14.890625 42.242188 C 14.890625 39.546875 16.46875 37.363281 18.414062 37.363281 C 20.359375 37.363281 21.9375 39.546875 21.9375 42.242188 C 21.9375 43.863281 21.367188 45.296875 20.492188 46.183594 " fill-opacity="1" fill-rule="nonzero"/><path fill="#6c1f2b" d="M 47.457031 31.722656 L 9.285156 31.722656 C 8.855469 31.722656 8.550781 31.296875 8.691406 30.894531 C 11.558594 22.792969 19.285156 16.988281 28.371094 16.988281 C 37.453125 16.988281 45.179688 22.792969 48.046875 30.894531 C 48.191406 31.296875 47.886719 31.722656 47.457031 31.722656 " fill-opacity="1" fill-rule="nonzero"/><path fill="#6c1f2b" d="M 29.109375 18.570312 L 27.628906 18.570312 L 27.628906 15.410156 L 29.109375 15.410156 L 29.109375 18.570312 " fill-opacity="1" fill-rule="nonzero"/><g clip-path="url(#7da6ba4b15)"><path fill="#6c1f2b" d="M 29.015625 16.171875 L 27.722656 16.171875 C 27.078125 16.171875 26.554688 15.648438 26.554688 15.003906 L 26.554688 14.980469 C 26.554688 14.335938 27.078125 13.8125 27.722656 13.8125 L 29.015625 13.8125 C 29.660156 13.8125 30.183594 14.335938 30.183594 14.980469 L 30.183594 15.003906 C 30.183594 15.648438 29.660156 16.171875 29.015625 16.171875 " fill-opacity="1" fill-rule="nonzero"/></g><path fill="#ffffff" d="M 39.851562 38.921875 L 39.851562 55.289062 C 38.820312 55.972656 37.722656 56.566406 36.574219 57.054688 L 36.769531 53.070312 C 36.816406 52.148438 36.402344 51.285156 35.699219 50.695312 C 35.027344 50.132812 34.59375 49.285156 34.59375 48.328125 L 34.59375 43.535156 C 34.59375 41.214844 35.699219 39.027344 37.570312 37.65625 L 37.601562 37.632812 C 38.546875 37.117188 39.757812 37.714844 39.84375 38.785156 C 39.847656 38.828125 39.851562 38.875 39.851562 38.921875 " fill-opacity="1" fill-rule="nonzero"/><g transform="matrix(1, 0, 0, 1, 58, 12)"><g clip-path="url(#b8c4c10606)"><g fill="#6c1f2b" fill-opacity="1"><g transform="translate(0.761088, 21.507554)"><g><path d="M 7.921875 -14.421875 C 8.804688 -14.421875 9.53125 -14.289062 10.09375 -14.03125 C 10.65625 -13.769531 11.160156 -13.46875 11.609375 -13.125 C 11.867188 -12.914062 12.066406 -12.890625 12.203125 -13.046875 C 12.347656 -13.203125 12.445312 -13.566406 12.5 -14.140625 L 12.953125 -14.140625 C 12.929688 -13.617188 12.910156 -12.988281 12.890625 -12.25 C 12.878906 -11.507812 12.875 -10.53125 12.875 -9.3125 L 12.421875 -9.3125 C 12.359375 -9.914062 12.269531 -10.429688 12.15625 -10.859375 C 12.050781 -11.296875 11.90625 -11.679688 11.71875 -12.015625 C 11.53125 -12.347656 11.265625 -12.648438 10.921875 -12.921875 C 10.585938 -13.253906 10.203125 -13.5 9.765625 -13.65625 C 9.328125 -13.8125 8.867188 -13.890625 8.390625 -13.890625 C 7.671875 -13.890625 7.054688 -13.703125 6.546875 -13.328125 C 6.046875 -12.953125 5.640625 -12.4375 5.328125 -11.78125 C 5.015625 -11.125 4.78125 -10.382812 4.625 -9.5625 C 4.476562 -8.75 4.40625 -7.90625 4.40625 -7.03125 C 4.40625 -6.132812 4.484375 -5.273438 4.640625 -4.453125 C 4.796875 -3.640625 5.035156 -2.910156 5.359375 -2.265625 C 5.679688 -1.628906 6.101562 -1.125 6.625 -0.75 C 7.144531 -0.382812 7.757812 -0.203125 8.46875 -0.203125 C 8.90625 -0.203125 9.347656 -0.285156 9.796875 -0.453125 C 10.242188 -0.617188 10.625 -0.859375 10.9375 -1.171875 C 11.457031 -1.578125 11.8125 -2.070312 12 -2.65625 C 12.1875 -3.25 12.328125 -4.039062 12.421875 -5.03125 L 12.875 -5.03125 C 12.875 -3.769531 12.878906 -2.75 12.890625 -1.96875 C 12.910156 -1.1875 12.929688 -0.53125 12.953125 0 L 12.5 0 C 12.445312 -0.570312 12.359375 -0.929688 12.234375 -1.078125 C 12.109375 -1.222656 11.898438 -1.203125 11.609375 -1.015625 C 11.109375 -0.671875 10.582031 -0.367188 10.03125 -0.109375 C 9.476562 0.148438 8.769531 0.28125 7.90625 0.28125 C 6.5 0.28125 5.265625 -0.00390625 4.203125 -0.578125 C 3.140625 -1.148438 2.316406 -1.972656 1.734375 -3.046875 C 1.148438 -4.128906 0.859375 -5.429688 0.859375 -6.953125 C 0.859375 -8.441406 1.160156 -9.742188 1.765625 -10.859375 C 2.367188 -11.984375 3.195312 -12.859375 4.25 -13.484375 C 5.3125 -14.109375 6.535156 -14.421875 7.921875 -14.421875 Z M 7.921875 -14.421875 "/></g></g></g><g fill="#6c1f2b" fill-opacity="1"><g transform="translate(14.833043, 21.507554)"><g><path d="M 3.234375 0.140625 C 2.640625 0.140625 2.140625 0.0234375 1.734375 -0.203125 C 1.335938 -0.429688 1.046875 -0.734375 0.859375 -1.109375 C 0.671875 -1.484375 0.578125 -1.898438 0.578125 -2.359375 C 0.578125 -2.929688 0.707031 -3.394531 0.96875 -3.75 C 1.226562 -4.113281 1.5625 -4.40625 1.96875 -4.625 C 2.382812 -4.851562 2.820312 -5.039062 3.28125 -5.1875 C 3.738281 -5.332031 4.175781 -5.472656 4.59375 -5.609375 C 5.019531 -5.753906 5.363281 -5.921875 5.625 -6.109375 C 5.882812 -6.304688 6.015625 -6.5625 6.015625 -6.875 L 6.015625 -8.421875 C 6.015625 -8.773438 5.957031 -9.085938 5.84375 -9.359375 C 5.726562 -9.628906 5.550781 -9.835938 5.3125 -9.984375 C 5.082031 -10.128906 4.78125 -10.203125 4.40625 -10.203125 C 4.144531 -10.203125 3.878906 -10.164062 3.609375 -10.09375 C 3.347656 -10.019531 3.128906 -9.894531 2.953125 -9.71875 C 3.328125 -9.59375 3.617188 -9.390625 3.828125 -9.109375 C 4.035156 -8.835938 4.140625 -8.53125 4.140625 -8.1875 C 4.140625 -7.738281 3.976562 -7.378906 3.65625 -7.109375 C 3.34375 -6.835938 2.976562 -6.703125 2.5625 -6.703125 C 2.082031 -6.703125 1.71875 -6.851562 1.46875 -7.15625 C 1.21875 -7.457031 1.09375 -7.820312 1.09375 -8.25 C 1.09375 -8.632812 1.1875 -8.953125 1.375 -9.203125 C 1.570312 -9.453125 1.847656 -9.691406 2.203125 -9.921875 C 2.566406 -10.140625 3.007812 -10.304688 3.53125 -10.421875 C 4.0625 -10.546875 4.632812 -10.609375 5.25 -10.609375 C 5.863281 -10.609375 6.414062 -10.539062 6.90625 -10.40625 C 7.394531 -10.28125 7.804688 -10.050781 8.140625 -9.71875 C 8.453125 -9.414062 8.65625 -9.039062 8.75 -8.59375 C 8.84375 -8.144531 8.890625 -7.582031 8.890625 -6.90625 L 8.890625 -1.484375 C 8.890625 -1.148438 8.921875 -0.914062 8.984375 -0.78125 C 9.046875 -0.65625 9.160156 -0.59375 9.328125 -0.59375 C 9.441406 -0.59375 9.554688 -0.625 9.671875 -0.6875 C 9.785156 -0.757812 9.910156 -0.84375 10.046875 -0.9375 L 10.25 -0.59375 C 9.96875 -0.351562 9.640625 -0.171875 9.265625 -0.046875 C 8.898438 0.078125 8.492188 0.140625 8.046875 0.140625 C 7.554688 0.140625 7.164062 0.0703125 6.875 -0.0625 C 6.582031 -0.207031 6.367188 -0.398438 6.234375 -0.640625 C 6.109375 -0.878906 6.046875 -1.160156 6.046875 -1.484375 C 5.734375 -0.972656 5.347656 -0.570312 4.890625 -0.28125 C 4.441406 0 3.890625 0.140625 3.234375 0.140625 Z M 4.65625 -1.140625 C 4.914062 -1.140625 5.15625 -1.203125 5.375 -1.328125 C 5.601562 -1.453125 5.816406 -1.660156 6.015625 -1.953125 L 6.015625 -6.046875 C 5.890625 -5.847656 5.71875 -5.664062 5.5 -5.5 C 5.289062 -5.34375 5.066406 -5.179688 4.828125 -5.015625 C 4.585938 -4.847656 4.359375 -4.664062 4.140625 -4.46875 C 3.921875 -4.269531 3.742188 -4.023438 3.609375 -3.734375 C 3.484375 -3.441406 3.421875 -3.085938 3.421875 -2.671875 C 3.421875 -2.148438 3.53125 -1.765625 3.75 -1.515625 C 3.976562 -1.265625 4.28125 -1.140625 4.65625 -1.140625 Z M 4.65625 -1.140625 "/></g></g></g><g fill="#6c1f2b" fill-opacity="1"><g transform="translate(25.172434, 21.507554)"><g><path d="M 4.53125 -13.59375 L 4.53125 -10.328125 L 6.890625 -10.328125 L 6.890625 -9.921875 L 4.53125 -9.921875 L 4.53125 -1.859375 C 4.53125 -1.460938 4.601562 -1.179688 4.75 -1.015625 C 4.894531 -0.847656 5.113281 -0.765625 5.40625 -0.765625 C 5.644531 -0.765625 5.882812 -0.851562 6.125 -1.03125 C 6.363281 -1.207031 6.578125 -1.515625 6.765625 -1.953125 L 7.109375 -1.78125 C 6.898438 -1.175781 6.578125 -0.679688 6.140625 -0.296875 C 5.703125 0.0859375 5.113281 0.28125 4.375 0.28125 C 3.9375 0.28125 3.550781 0.222656 3.21875 0.109375 C 2.882812 -0.00390625 2.601562 -0.175781 2.375 -0.40625 C 2.082031 -0.695312 1.890625 -1.054688 1.796875 -1.484375 C 1.703125 -1.921875 1.65625 -2.484375 1.65625 -3.171875 L 1.65625 -9.921875 L -0.015625 -9.921875 L -0.015625 -10.328125 L 1.65625 -10.328125 L 1.65625 -12.953125 C 2.21875 -12.953125 2.734375 -13.003906 3.203125 -13.109375 C 3.671875 -13.210938 4.113281 -13.375 4.53125 -13.59375 Z M 4.53125 -13.59375 "/></g></g></g><g fill="#6c1f2b" fill-opacity="1"><g transform="translate(32.118588, 21.507554)"><g><path d="M 5.625 -10.609375 C 6.800781 -10.609375 7.722656 -10.257812 8.390625 -9.5625 C 9.054688 -8.875 9.390625 -7.742188 9.390625 -6.171875 L 2.8125 -6.171875 L 2.78125 -6.546875 L 6.875 -6.546875 C 6.882812 -7.203125 6.84375 -7.804688 6.75 -8.359375 C 6.65625 -8.910156 6.507812 -9.351562 6.3125 -9.6875 C 6.113281 -10.019531 5.847656 -10.1875 5.515625 -10.1875 C 5.046875 -10.1875 4.644531 -9.890625 4.3125 -9.296875 C 3.988281 -8.710938 3.796875 -7.742188 3.734375 -6.390625 L 3.796875 -6.265625 C 3.785156 -6.109375 3.773438 -5.941406 3.765625 -5.765625 C 3.753906 -5.597656 3.75 -5.421875 3.75 -5.234375 C 3.75 -4.316406 3.878906 -3.570312 4.140625 -3 C 4.398438 -2.425781 4.726562 -2.007812 5.125 -1.75 C 5.53125 -1.488281 5.9375 -1.359375 6.34375 -1.359375 C 6.625 -1.359375 6.914062 -1.398438 7.21875 -1.484375 C 7.519531 -1.578125 7.820312 -1.738281 8.125 -1.96875 C 8.4375 -2.195312 8.722656 -2.523438 8.984375 -2.953125 L 9.34375 -2.828125 C 9.1875 -2.328125 8.929688 -1.835938 8.578125 -1.359375 C 8.234375 -0.878906 7.796875 -0.484375 7.265625 -0.171875 C 6.734375 0.128906 6.097656 0.28125 5.359375 0.28125 C 4.453125 0.28125 3.648438 0.0859375 2.953125 -0.296875 C 2.265625 -0.679688 1.722656 -1.265625 1.328125 -2.046875 C 0.929688 -2.835938 0.734375 -3.835938 0.734375 -5.046875 C 0.734375 -6.285156 0.941406 -7.316406 1.359375 -8.140625 C 1.785156 -8.972656 2.367188 -9.59375 3.109375 -10 C 3.847656 -10.40625 4.6875 -10.609375 5.625 -10.609375 Z M 5.625 -10.609375 "/></g></g></g><g fill="#6c1f2b" fill-opacity="1"><g transform="translate(42.058775, 21.507554)"><g><path d="M 7.34375 -10.609375 C 7.769531 -10.609375 8.113281 -10.515625 8.375 -10.328125 C 8.644531 -10.148438 8.84375 -9.921875 8.96875 -9.640625 C 9.101562 -9.359375 9.171875 -9.066406 9.171875 -8.765625 C 9.171875 -8.273438 9.023438 -7.875 8.734375 -7.5625 C 8.453125 -7.25 8.078125 -7.09375 7.609375 -7.09375 C 7.140625 -7.09375 6.773438 -7.207031 6.515625 -7.4375 C 6.253906 -7.664062 6.125 -7.972656 6.125 -8.359375 C 6.125 -8.734375 6.207031 -9.046875 6.375 -9.296875 C 6.539062 -9.546875 6.753906 -9.753906 7.015625 -9.921875 C 6.828125 -9.972656 6.640625 -9.96875 6.453125 -9.90625 C 6.203125 -9.863281 5.960938 -9.757812 5.734375 -9.59375 C 5.503906 -9.425781 5.304688 -9.21875 5.140625 -8.96875 C 4.984375 -8.726562 4.859375 -8.460938 4.765625 -8.171875 C 4.671875 -7.890625 4.625 -7.613281 4.625 -7.34375 L 4.625 -2.0625 C 4.625 -1.414062 4.78125 -0.976562 5.09375 -0.75 C 5.414062 -0.53125 5.890625 -0.421875 6.515625 -0.421875 L 6.515625 0 C 6.203125 -0.0078125 5.753906 -0.0234375 5.171875 -0.046875 C 4.585938 -0.0664062 3.972656 -0.078125 3.328125 -0.078125 C 2.796875 -0.078125 2.257812 -0.0664062 1.71875 -0.046875 C 1.175781 -0.0234375 0.765625 -0.0078125 0.484375 0 L 0.484375 -0.421875 C 0.941406 -0.421875 1.265625 -0.519531 1.453125 -0.71875 C 1.648438 -0.914062 1.75 -1.296875 1.75 -1.859375 L 1.75 -8.140625 C 1.75 -8.742188 1.660156 -9.1875 1.484375 -9.46875 C 1.304688 -9.757812 0.972656 -9.90625 0.484375 -9.90625 L 0.484375 -10.328125 C 0.910156 -10.285156 1.320312 -10.265625 1.71875 -10.265625 C 2.28125 -10.265625 2.800781 -10.285156 3.28125 -10.328125 C 3.769531 -10.378906 4.21875 -10.453125 4.625 -10.546875 L 4.625 -8.6875 C 4.789062 -9.039062 5.003906 -9.363281 5.265625 -9.65625 C 5.535156 -9.957031 5.84375 -10.191406 6.1875 -10.359375 C 6.53125 -10.523438 6.914062 -10.609375 7.34375 -10.609375 Z M 7.34375 -10.609375 "/></g></g></g><g fill="#6c1f2b" fill-opacity="1"><g transform="translate(51.380196, 21.507554)"><g><path d="M 3.078125 -15.46875 C 3.628906 -15.46875 4.066406 -15.332031 4.390625 -15.0625 C 4.722656 -14.789062 4.890625 -14.414062 4.890625 -13.9375 C 4.890625 -13.457031 4.722656 -13.082031 4.390625 -12.8125 C 4.066406 -12.539062 3.628906 -12.40625 3.078125 -12.40625 C 2.515625 -12.40625 2.066406 -12.539062 1.734375 -12.8125 C 1.410156 -13.082031 1.25 -13.457031 1.25 -13.9375 C 1.25 -14.414062 1.410156 -14.789062 1.734375 -15.0625 C 2.066406 -15.332031 2.515625 -15.46875 3.078125 -15.46875 Z M 4.625 -10.546875 L 4.625 -1.859375 C 4.625 -1.296875 4.722656 -0.914062 4.921875 -0.71875 C 5.117188 -0.519531 5.445312 -0.421875 5.90625 -0.421875 L 5.90625 0 C 5.664062 -0.0078125 5.289062 -0.0234375 4.78125 -0.046875 C 4.28125 -0.0664062 3.769531 -0.078125 3.25 -0.078125 C 2.726562 -0.078125 2.203125 -0.0664062 1.671875 -0.046875 C 1.140625 -0.0234375 0.742188 -0.0078125 0.484375 0 L 0.484375 -0.421875 C 0.941406 -0.421875 1.265625 -0.519531 1.453125 -0.71875 C 1.648438 -0.914062 1.75 -1.296875 1.75 -1.859375 L 1.75 -8.140625 C 1.75 -8.742188 1.660156 -9.1875 1.484375 -9.46875 C 1.304688 -9.757812 0.972656 -9.90625 0.484375 -9.90625 L 0.484375 -10.328125 C 0.910156 -10.285156 1.320312 -10.265625 1.71875 -10.265625 C 2.28125 -10.265625 2.800781 -10.285156 3.28125 -10.328125 C 3.769531 -10.378906 4.21875 -10.453125 4.625 -10.546875 Z M 4.625 -10.546875 "/></g></g></g><g fill="#6c1f2b" fill-opacity="1"><g transform="translate(57.667662, 21.507554)"><g><path d="M 7.90625 -10.609375 C 8.46875 -10.609375 8.921875 -10.535156 9.265625 -10.390625 C 9.617188 -10.253906 9.898438 -10.066406 10.109375 -9.828125 C 10.316406 -9.566406 10.46875 -9.238281 10.5625 -8.84375 C 10.664062 -8.445312 10.71875 -7.910156 10.71875 -7.234375 L 10.71875 -1.859375 C 10.71875 -1.296875 10.8125 -0.914062 11 -0.71875 C 11.195312 -0.519531 11.53125 -0.421875 12 -0.421875 L 12 0 C 11.75 -0.0078125 11.367188 -0.0234375 10.859375 -0.046875 C 10.359375 -0.0664062 9.859375 -0.078125 9.359375 -0.078125 C 8.859375 -0.078125 8.363281 -0.0664062 7.875 -0.046875 C 7.394531 -0.0234375 7.023438 -0.0078125 6.765625 0 L 6.765625 -0.421875 C 7.171875 -0.421875 7.453125 -0.519531 7.609375 -0.71875 C 7.765625 -0.914062 7.84375 -1.296875 7.84375 -1.859375 L 7.84375 -8.0625 C 7.84375 -8.394531 7.804688 -8.6875 7.734375 -8.9375 C 7.671875 -9.1875 7.550781 -9.378906 7.375 -9.515625 C 7.207031 -9.648438 6.953125 -9.71875 6.609375 -9.71875 C 6.253906 -9.71875 5.925781 -9.617188 5.625 -9.421875 C 5.320312 -9.222656 5.078125 -8.945312 4.890625 -8.59375 C 4.710938 -8.238281 4.625 -7.84375 4.625 -7.40625 L 4.625 -1.859375 C 4.625 -1.296875 4.707031 -0.914062 4.875 -0.71875 C 5.039062 -0.519531 5.320312 -0.421875 5.71875 -0.421875 L 5.71875 0 C 5.476562 -0.0078125 5.125 -0.0234375 4.65625 -0.046875 C 4.195312 -0.0664062 3.722656 -0.078125 3.234375 -0.078125 C 2.722656 -0.078125 2.203125 -0.0664062 1.671875 -0.046875 C 1.140625 -0.0234375 0.742188 -0.0078125 0.484375 0 L 0.484375 -0.421875 C 0.941406 -0.421875 1.265625 -0.519531 1.453125 -0.71875 C 1.648438 -0.914062 1.75 -1.296875 1.75 -1.859375 L 1.75 -8.140625 C 1.75 -8.742188 1.660156 -9.1875 1.484375 -9.46875 C 1.304688 -9.757812 0.972656 -9.90625 0.484375 -9.90625 L 0.484375 -10.328125 C 0.910156 -10.285156 1.320312 -10.265625 1.71875 -10.265625 C 2.28125 -10.265625 2.800781 -10.285156 3.28125 -10.328125 C 3.769531 -10.378906 4.21875 -10.453125 4.625 -10.546875 L 4.625 -8.75 C 4.957031 -9.425781 5.410156 -9.90625 5.984375 -10.1875 C 6.554688 -10.46875 7.195312 -10.609375 7.90625 -10.609375 Z M 7.90625 -10.609375 "/></g></g></g><g fill="#6c1f2b" fill-opacity="1"><g transform="translate(69.783509, 21.507554)"><g><path d="M 4.359375 3.75 C 3.523438 3.75 2.785156 3.675781 2.140625 3.53125 C 1.492188 3.394531 0.988281 3.179688 0.625 2.890625 C 0.257812 2.609375 0.078125 2.265625 0.078125 1.859375 C 0.078125 1.441406 0.265625 1.070312 0.640625 0.75 C 1.015625 0.425781 1.566406 0.171875 2.296875 -0.015625 L 2.46875 0.296875 C 2.21875 0.492188 2.035156 0.707031 1.921875 0.9375 C 1.804688 1.175781 1.75 1.421875 1.75 1.671875 C 1.75 2.234375 2.003906 2.664062 2.515625 2.96875 C 3.035156 3.269531 3.734375 3.421875 4.609375 3.421875 C 5.210938 3.421875 5.75 3.335938 6.21875 3.171875 C 6.6875 3.015625 7.054688 2.773438 7.328125 2.453125 C 7.609375 2.140625 7.75 1.75 7.75 1.28125 C 7.75 0.875 7.601562 0.535156 7.3125 0.265625 C 7.019531 -0.00390625 6.429688 -0.140625 5.546875 -0.140625 L 4.3125 -0.140625 C 3.769531 -0.140625 3.296875 -0.195312 2.890625 -0.3125 C 2.484375 -0.4375 2.164062 -0.628906 1.9375 -0.890625 C 1.707031 -1.148438 1.59375 -1.476562 1.59375 -1.875 C 1.59375 -2.4375 1.8125 -2.929688 2.25 -3.359375 C 2.695312 -3.785156 3.351562 -4.179688 4.21875 -4.546875 L 4.40625 -4.390625 C 4.15625 -4.234375 3.921875 -4.0625 3.703125 -3.875 C 3.484375 -3.695312 3.375 -3.46875 3.375 -3.1875 C 3.375 -2.769531 3.640625 -2.5625 4.171875 -2.5625 L 6.34375 -2.5625 C 7.082031 -2.5625 7.738281 -2.472656 8.3125 -2.296875 C 8.894531 -2.117188 9.351562 -1.832031 9.6875 -1.4375 C 10.03125 -1.050781 10.203125 -0.546875 10.203125 0.078125 C 10.203125 0.734375 9.992188 1.335938 9.578125 1.890625 C 9.160156 2.453125 8.515625 2.898438 7.640625 3.234375 C 6.773438 3.578125 5.679688 3.75 4.359375 3.75 Z M 4.546875 -4.25 C 3.796875 -4.25 3.117188 -4.363281 2.515625 -4.59375 C 1.921875 -4.820312 1.445312 -5.164062 1.09375 -5.625 C 0.75 -6.09375 0.578125 -6.691406 0.578125 -7.421875 C 0.578125 -8.160156 0.75 -8.765625 1.09375 -9.234375 C 1.445312 -9.703125 1.921875 -10.046875 2.515625 -10.265625 C 3.117188 -10.492188 3.796875 -10.609375 4.546875 -10.609375 C 5.304688 -10.609375 5.984375 -10.492188 6.578125 -10.265625 C 7.179688 -10.046875 7.65625 -9.703125 8 -9.234375 C 8.351562 -8.765625 8.53125 -8.160156 8.53125 -7.421875 C 8.53125 -6.691406 8.351562 -6.09375 8 -5.625 C 7.65625 -5.164062 7.179688 -4.820312 6.578125 -4.59375 C 5.984375 -4.363281 5.304688 -4.25 4.546875 -4.25 Z M 4.546875 -4.609375 C 4.910156 -4.609375 5.191406 -4.8125 5.390625 -5.21875 C 5.585938 -5.625 5.6875 -6.359375 5.6875 -7.421875 C 5.6875 -8.492188 5.585938 -9.234375 5.390625 -9.640625 C 5.191406 -10.046875 4.910156 -10.25 4.546875 -10.25 C 4.203125 -10.25 3.925781 -10.046875 3.71875 -9.640625 C 3.519531 -9.234375 3.421875 -8.492188 3.421875 -7.421875 C 3.421875 -6.359375 3.519531 -5.625 3.71875 -5.21875 C 3.925781 -4.8125 4.203125 -4.609375 4.546875 -4.609375 Z M 7.671875 -8.890625 L 7.265625 -9.03125 C 7.460938 -9.539062 7.785156 -9.96875 8.234375 -10.3125 C 8.679688 -10.664062 9.164062 -10.84375 9.6875 -10.84375 C 10.113281 -10.84375 10.4375 -10.722656 10.65625 -10.484375 C 10.875 -10.253906 10.984375 -9.953125 10.984375 -9.578125 C 10.984375 -9.179688 10.875 -8.882812 10.65625 -8.6875 C 10.445312 -8.5 10.207031 -8.40625 9.9375 -8.40625 C 9.71875 -8.40625 9.507812 -8.484375 9.3125 -8.640625 C 9.125 -8.804688 9.015625 -9.050781 8.984375 -9.375 C 8.960938 -9.695312 9.078125 -10.117188 9.328125 -10.640625 L 9.46875 -10.53125 C 8.957031 -10.34375 8.578125 -10.125 8.328125 -9.875 C 8.078125 -9.625 7.859375 -9.296875 7.671875 -8.890625 Z M 7.671875 -8.890625 "/></g></g></g></g></g><g transform="matrix(1, 0, 0, 1, 58, 35)"><g clip-path="url(#248a736954)"><g clip-path="url(#c1fd949d26)"><g fill="#6c1f2b" fill-opacity="1"><g transform="translate(0.761088, 22.21267)"><g><path d="M 7.34375 -14.171875 L 12.203125 -1.671875 C 12.390625 -1.191406 12.597656 -0.863281 12.828125 -0.6875 C 13.054688 -0.507812 13.265625 -0.414062 13.453125 -0.40625 L 13.453125 0 C 13.054688 -0.03125 12.585938 -0.046875 12.046875 -0.046875 C 11.515625 -0.0546875 10.972656 -0.0625 10.421875 -0.0625 C 9.804688 -0.0625 9.226562 -0.0546875 8.6875 -0.046875 C 8.144531 -0.046875 7.710938 -0.03125 7.390625 0 L 7.390625 -0.40625 C 8.066406 -0.425781 8.492188 -0.539062 8.671875 -0.75 C 8.859375 -0.957031 8.816406 -1.398438 8.546875 -2.078125 L 5.15625 -11.359375 L 5.515625 -11.875 L 2.46875 -3.96875 C 2.175781 -3.238281 2 -2.640625 1.9375 -2.171875 C 1.882812 -1.710938 1.921875 -1.351562 2.046875 -1.09375 C 2.171875 -0.84375 2.375 -0.664062 2.65625 -0.5625 C 2.945312 -0.46875 3.289062 -0.414062 3.6875 -0.40625 L 3.6875 0 C 3.25 -0.03125 2.832031 -0.046875 2.4375 -0.046875 C 2.039062 -0.0546875 1.632812 -0.0625 1.21875 -0.0625 C 0.925781 -0.0625 0.648438 -0.0546875 0.390625 -0.046875 C 0.128906 -0.046875 -0.0976562 -0.03125 -0.296875 0 L -0.296875 -0.40625 C -0.015625 -0.457031 0.269531 -0.632812 0.5625 -0.9375 C 0.851562 -1.238281 1.140625 -1.757812 1.421875 -2.5 L 5.96875 -14.171875 C 6.1875 -14.160156 6.414062 -14.15625 6.65625 -14.15625 C 6.90625 -14.15625 7.132812 -14.160156 7.34375 -14.171875 Z M 8.75 -5.75 L 8.75 -5.359375 L 2.796875 -5.359375 L 3 -5.75 Z M 8.75 -5.75 "/></g></g></g></g><g fill="#6c1f2b" fill-opacity="1"><g transform="translate(14.074552, 22.21267)"><g><path d="M 7.90625 -10.609375 C 8.46875 -10.609375 8.921875 -10.535156 9.265625 -10.390625 C 9.617188 -10.253906 9.898438 -10.066406 10.109375 -9.828125 C 10.316406 -9.566406 10.46875 -9.238281 10.5625 -8.84375 C 10.664062 -8.445312 10.71875 -7.910156 10.71875 -7.234375 L 10.71875 -1.859375 C 10.71875 -1.296875 10.8125 -0.914062 11 -0.71875 C 11.195312 -0.519531 11.53125 -0.421875 12 -0.421875 L 12 0 C 11.75 -0.0078125 11.367188 -0.0234375 10.859375 -0.046875 C 10.359375 -0.0664062 9.859375 -0.078125 9.359375 -0.078125 C 8.859375 -0.078125 8.363281 -0.0664062 7.875 -0.046875 C 7.394531 -0.0234375 7.023438 -0.0078125 6.765625 0 L 6.765625 -0.421875 C 7.171875 -0.421875 7.453125 -0.519531 7.609375 -0.71875 C 7.765625 -0.914062 7.84375 -1.296875 7.84375 -1.859375 L 7.84375 -8.0625 C 7.84375 -8.394531 7.804688 -8.6875 7.734375 -8.9375 C 7.671875 -9.1875 7.550781 -9.378906 7.375 -9.515625 C 7.207031 -9.648438 6.953125 -9.71875 6.609375 -9.71875 C 6.253906 -9.71875 5.925781 -9.617188 5.625 -9.421875 C 5.320312 -9.222656 5.078125 -8.945312 4.890625 -8.59375 C 4.710938 -8.238281 4.625 -7.84375 4.625 -7.40625 L 4.625 -1.859375 C 4.625 -1.296875 4.707031 -0.914062 4.875 -0.71875 C 5.039062 -0.519531 5.320312 -0.421875 5.71875 -0.421875 L 5.71875 0 C 5.476562 -0.0078125 5.125 -0.0234375 4.65625 -0.046875 C 4.195312 -0.0664062 3.722656 -0.078125 3.234375 -0.078125 C 2.722656 -0.078125 2.203125 -0.0664062 1.671875 -0.046875 C 1.140625 -0.0234375 0.742188 -0.0078125 0.484375 0 L 0.484375 -0.421875 C 0.941406 -0.421875 1.265625 -0.519531 1.453125 -0.71875 C 1.648438 -0.914062 1.75 -1.296875 1.75 -1.859375 L 1.75 -8.140625 C 1.75 -8.742188 1.660156 -9.1875 1.484375 -9.46875 C 1.304688 -9.757812 0.972656 -9.90625 0.484375 -9.90625 L 0.484375 -10.328125 C 0.910156 -10.285156 1.320312 -10.265625 1.71875 -10.265625 C 2.28125 -10.265625 2.800781 -10.285156 3.28125 -10.328125 C 3.769531 -10.378906 4.21875 -10.453125 4.625 -10.546875 L 4.625 -8.75 C 4.957031 -9.425781 5.410156 -9.90625 5.984375 -10.1875 C 6.554688 -10.46875 7.195312 -10.609375 7.90625 -10.609375 Z M 7.90625 -10.609375 "/></g></g></g><g fill="#6c1f2b" fill-opacity="1"><g transform="translate(26.330123, 22.21267)"><g><path d="M 4.53125 -13.59375 L 4.53125 -10.328125 L 6.890625 -10.328125 L 6.890625 -9.921875 L 4.53125 -9.921875 L 4.53125 -1.859375 C 4.53125 -1.460938 4.601562 -1.179688 4.75 -1.015625 C 4.894531 -0.847656 5.113281 -0.765625 5.40625 -0.765625 C 5.644531 -0.765625 5.882812 -0.851562 6.125 -1.03125 C 6.363281 -1.207031 6.578125 -1.515625 6.765625 -1.953125 L 7.109375 -1.78125 C 6.898438 -1.175781 6.578125 -0.679688 6.140625 -0.296875 C 5.703125 0.0859375 5.113281 0.28125 4.375 0.28125 C 3.9375 0.28125 3.550781 0.222656 3.21875 0.109375 C 2.882812 -0.00390625 2.601562 -0.175781 2.375 -0.40625 C 2.082031 -0.695312 1.890625 -1.054688 1.796875 -1.484375 C 1.703125 -1.921875 1.65625 -2.484375 1.65625 -3.171875 L 1.65625 -9.921875 L -0.015625 -9.921875 L -0.015625 -10.328125 L 1.65625 -10.328125 L 1.65625 -12.953125 C 2.21875 -12.953125 2.734375 -13.003906 3.203125 -13.109375 C 3.671875 -13.210938 4.113281 -13.375 4.53125 -13.59375 Z M 4.53125 -13.59375 "/></g></g></g><g fill="#6c1f2b" fill-opacity="1"><g transform="translate(33.35612, 22.21267)"><g><path d="M 3.078125 -15.46875 C 3.628906 -15.46875 4.066406 -15.332031 4.390625 -15.0625 C 4.722656 -14.789062 4.890625 -14.414062 4.890625 -13.9375 C 4.890625 -13.457031 4.722656 -13.082031 4.390625 -12.8125 C 4.066406 -12.539062 3.628906 -12.40625 3.078125 -12.40625 C 2.515625 -12.40625 2.066406 -12.539062 1.734375 -12.8125 C 1.410156 -13.082031 1.25 -13.457031 1.25 -13.9375 C 1.25 -14.414062 1.410156 -14.789062 1.734375 -15.0625 C 2.066406 -15.332031 2.515625 -15.46875 3.078125 -15.46875 Z M 4.625 -10.546875 L 4.625 -1.859375 C 4.625 -1.296875 4.722656 -0.914062 4.921875 -0.71875 C 5.117188 -0.519531 5.445312 -0.421875 5.90625 -0.421875 L 5.90625 0 C 5.664062 -0.0078125 5.289062 -0.0234375 4.78125 -0.046875 C 4.28125 -0.0664062 3.769531 -0.078125 3.25 -0.078125 C 2.726562 -0.078125 2.203125 -0.0664062 1.671875 -0.046875 C 1.140625 -0.0234375 0.742188 -0.0078125 0.484375 0 L 0.484375 -0.421875 C 0.941406 -0.421875 1.265625 -0.519531 1.453125 -0.71875 C 1.648438 -0.914062 1.75 -1.296875 1.75 -1.859375 L 1.75 -8.140625 C 1.75 -8.742188 1.660156 -9.1875 1.484375 -9.46875 C 1.304688 -9.757812 0.972656 -9.90625 0.484375 -9.90625 L 0.484375 -10.328125 C 0.910156 -10.285156 1.320312 -10.265625 1.71875 -10.265625 C 2.28125 -10.265625 2.800781 -10.285156 3.28125 -10.328125 C 3.769531 -10.378906 4.21875 -10.453125 4.625 -10.546875 Z M 4.625 -10.546875 "/></g></g></g><g fill="#6c1f2b" fill-opacity="1"><g transform="translate(39.643586, 22.21267)"><g><path d="M 4.546875 -10.546875 L 4.546875 1.640625 C 4.546875 2.265625 4.707031 2.675781 5.03125 2.875 C 5.351562 3.082031 5.789062 3.1875 6.34375 3.1875 L 6.34375 3.609375 C 6 3.597656 5.523438 3.582031 4.921875 3.5625 C 4.316406 3.539062 3.675781 3.53125 3 3.53125 C 2.5 3.53125 2.015625 3.539062 1.546875 3.5625 C 1.078125 3.582031 0.722656 3.597656 0.484375 3.609375 L 0.484375 3.1875 C 0.921875 3.1875 1.226562 3.09375 1.40625 2.90625 C 1.582031 2.726562 1.671875 2.375 1.671875 1.84375 L 1.671875 -8.140625 C 1.671875 -8.742188 1.578125 -9.1875 1.390625 -9.46875 C 1.210938 -9.757812 0.882812 -9.90625 0.40625 -9.90625 L 0.40625 -10.328125 C 0.820312 -10.285156 1.234375 -10.265625 1.640625 -10.265625 C 2.179688 -10.265625 2.695312 -10.285156 3.1875 -10.328125 C 3.6875 -10.378906 4.140625 -10.453125 4.546875 -10.546875 Z M 7.640625 -10.609375 C 8.328125 -10.609375 8.9375 -10.421875 9.46875 -10.046875 C 10 -9.679688 10.421875 -9.128906 10.734375 -8.390625 C 11.054688 -7.648438 11.21875 -6.726562 11.21875 -5.625 C 11.21875 -4.65625 11.109375 -3.804688 10.890625 -3.078125 C 10.671875 -2.347656 10.359375 -1.734375 9.953125 -1.234375 C 9.546875 -0.734375 9.054688 -0.351562 8.484375 -0.09375 C 7.921875 0.15625 7.289062 0.28125 6.59375 0.28125 C 6.070312 0.28125 5.597656 0.1875 5.171875 0 C 4.742188 -0.175781 4.414062 -0.429688 4.1875 -0.765625 L 4.390625 -1.015625 C 4.523438 -0.773438 4.710938 -0.585938 4.953125 -0.453125 C 5.203125 -0.328125 5.488281 -0.265625 5.8125 -0.265625 C 6.40625 -0.265625 6.875 -0.46875 7.21875 -0.875 C 7.570312 -1.28125 7.820312 -1.847656 7.96875 -2.578125 C 8.125 -3.316406 8.203125 -4.203125 8.203125 -5.234375 C 8.203125 -6.378906 8.128906 -7.273438 7.984375 -7.921875 C 7.835938 -8.578125 7.640625 -9.046875 7.390625 -9.328125 C 7.140625 -9.609375 6.832031 -9.75 6.46875 -9.75 C 5.988281 -9.75 5.550781 -9.5625 5.15625 -9.1875 C 4.769531 -8.8125 4.550781 -8.28125 4.5 -7.59375 L 4.390625 -8.28125 C 4.628906 -9.039062 5.035156 -9.617188 5.609375 -10.015625 C 6.191406 -10.410156 6.867188 -10.609375 7.640625 -10.609375 Z M 7.640625 -10.609375 "/></g></g></g><g fill="#6c1f2b" fill-opacity="1"><g transform="translate(51.619719, 22.21267)"><g><path d="M 3.234375 0.140625 C 2.640625 0.140625 2.140625 0.0234375 1.734375 -0.203125 C 1.335938 -0.429688 1.046875 -0.734375 0.859375 -1.109375 C 0.671875 -1.484375 0.578125 -1.898438 0.578125 -2.359375 C 0.578125 -2.929688 0.707031 -3.394531 0.96875 -3.75 C 1.226562 -4.113281 1.5625 -4.40625 1.96875 -4.625 C 2.382812 -4.851562 2.820312 -5.039062 3.28125 -5.1875 C 3.738281 -5.332031 4.175781 -5.472656 4.59375 -5.609375 C 5.019531 -5.753906 5.363281 -5.921875 5.625 -6.109375 C 5.882812 -6.304688 6.015625 -6.5625 6.015625 -6.875 L 6.015625 -8.421875 C 6.015625 -8.773438 5.957031 -9.085938 5.84375 -9.359375 C 5.726562 -9.628906 5.550781 -9.835938 5.3125 -9.984375 C 5.082031 -10.128906 4.78125 -10.203125 4.40625 -10.203125 C 4.144531 -10.203125 3.878906 -10.164062 3.609375 -10.09375 C 3.347656 -10.019531 3.128906 -9.894531 2.953125 -9.71875 C 3.328125 -9.59375 3.617188 -9.390625 3.828125 -9.109375 C 4.035156 -8.835938 4.140625 -8.53125 4.140625 -8.1875 C 4.140625 -7.738281 3.976562 -7.378906 3.65625 -7.109375 C 3.34375 -6.835938 2.976562 -6.703125 2.5625 -6.703125 C 2.082031 -6.703125 1.71875 -6.851562 1.46875 -7.15625 C 1.21875 -7.457031 1.09375 -7.820312 1.09375 -8.25 C 1.09375 -8.632812 1.1875 -8.953125 1.375 -9.203125 C 1.570312 -9.453125 1.847656 -9.691406 2.203125 -9.921875 C 2.566406 -10.140625 3.007812 -10.304688 3.53125 -10.421875 C 4.0625 -10.546875 4.632812 -10.609375 5.25 -10.609375 C 5.863281 -10.609375 6.414062 -10.539062 6.90625 -10.40625 C 7.394531 -10.28125 7.804688 -10.050781 8.140625 -9.71875 C 8.453125 -9.414062 8.65625 -9.039062 8.75 -8.59375 C 8.84375 -8.144531 8.890625 -7.582031 8.890625 -6.90625 L 8.890625 -1.484375 C 8.890625 -1.148438 8.921875 -0.914062 8.984375 -0.78125 C 9.046875 -0.65625 9.160156 -0.59375 9.328125 -0.59375 C 9.441406 -0.59375 9.554688 -0.625 9.671875 -0.6875 C 9.785156 -0.757812 9.910156 -0.84375 10.046875 -0.9375 L 10.25 -0.59375 C 9.96875 -0.351562 9.640625 -0.171875 9.265625 -0.046875 C 8.898438 0.078125 8.492188 0.140625 8.046875 0.140625 C 7.554688 0.140625 7.164062 0.0703125 6.875 -0.0625 C 6.582031 -0.207031 6.367188 -0.398438 6.234375 -0.640625 C 6.109375 -0.878906 6.046875 -1.160156 6.046875 -1.484375 C 5.734375 -0.972656 5.347656 -0.570312 4.890625 -0.28125 C 4.441406 0 3.890625 0.140625 3.234375 0.140625 Z M 4.65625 -1.140625 C 4.914062 -1.140625 5.15625 -1.203125 5.375 -1.328125 C 5.601562 -1.453125 5.816406 -1.660156 6.015625 -1.953125 L 6.015625 -6.046875 C 5.890625 -5.847656 5.71875 -5.664062 5.5 -5.5 C 5.289062 -5.34375 5.066406 -5.179688 4.828125 -5.015625 C 4.585938 -4.847656 4.359375 -4.664062 4.140625 -4.46875 C 3.921875 -4.269531 3.742188 -4.023438 3.609375 -3.734375 C 3.484375 -3.441406 3.421875 -3.085938 3.421875 -2.671875 C 3.421875 -2.148438 3.53125 -1.765625 3.75 -1.515625 C 3.976562 -1.265625 4.28125 -1.140625 4.65625 -1.140625 Z M 4.65625 -1.140625 "/></g></g></g><g fill="#6c1f2b" fill-opacity="1"><g transform="translate(61.95911, 22.21267)"><g><path d="M 4.4375 -10.609375 C 4.988281 -10.609375 5.472656 -10.535156 5.890625 -10.390625 C 6.316406 -10.253906 6.625 -10.117188 6.8125 -9.984375 C 7.257812 -9.679688 7.535156 -9.878906 7.640625 -10.578125 L 8.0625 -10.578125 C 8.039062 -10.210938 8.019531 -9.757812 8 -9.21875 C 7.988281 -8.675781 7.984375 -7.957031 7.984375 -7.0625 L 7.5625 -7.0625 C 7.5 -7.5625 7.375 -8.050781 7.1875 -8.53125 C 7 -9.007812 6.726562 -9.398438 6.375 -9.703125 C 6.019531 -10.015625 5.566406 -10.171875 5.015625 -10.171875 C 4.628906 -10.171875 4.300781 -10.054688 4.03125 -9.828125 C 3.769531 -9.609375 3.640625 -9.296875 3.640625 -8.890625 C 3.640625 -8.484375 3.757812 -8.128906 4 -7.828125 C 4.238281 -7.535156 4.546875 -7.25 4.921875 -6.96875 C 5.296875 -6.695312 5.691406 -6.410156 6.109375 -6.109375 C 6.546875 -5.773438 6.941406 -5.441406 7.296875 -5.109375 C 7.660156 -4.785156 7.945312 -4.429688 8.15625 -4.046875 C 8.375 -3.660156 8.484375 -3.203125 8.484375 -2.671875 C 8.484375 -2.078125 8.3125 -1.554688 7.96875 -1.109375 C 7.625 -0.660156 7.164062 -0.316406 6.59375 -0.078125 C 6.03125 0.160156 5.40625 0.28125 4.71875 0.28125 C 4.3125 0.28125 3.953125 0.238281 3.640625 0.15625 C 3.328125 0.0820312 3.054688 -0.015625 2.828125 -0.140625 C 2.660156 -0.222656 2.5 -0.300781 2.34375 -0.375 C 2.1875 -0.445312 2.046875 -0.507812 1.921875 -0.5625 C 1.785156 -0.601562 1.664062 -0.554688 1.5625 -0.421875 C 1.46875 -0.285156 1.394531 -0.0976562 1.34375 0.140625 L 0.921875 0.140625 C 0.941406 -0.285156 0.957031 -0.804688 0.96875 -1.421875 C 0.988281 -2.035156 1 -2.847656 1 -3.859375 L 1.421875 -3.859375 C 1.492188 -3.140625 1.632812 -2.503906 1.84375 -1.953125 C 2.0625 -1.398438 2.351562 -0.96875 2.71875 -0.65625 C 3.09375 -0.34375 3.554688 -0.1875 4.109375 -0.1875 C 4.335938 -0.1875 4.554688 -0.226562 4.765625 -0.3125 C 4.984375 -0.40625 5.160156 -0.554688 5.296875 -0.765625 C 5.441406 -0.984375 5.515625 -1.257812 5.515625 -1.59375 C 5.515625 -2.175781 5.320312 -2.660156 4.9375 -3.046875 C 4.5625 -3.441406 4.082031 -3.863281 3.5 -4.3125 C 3.070312 -4.65625 2.664062 -4.992188 2.28125 -5.328125 C 1.90625 -5.671875 1.597656 -6.046875 1.359375 -6.453125 C 1.117188 -6.859375 1 -7.320312 1 -7.84375 C 1 -8.445312 1.15625 -8.953125 1.46875 -9.359375 C 1.789062 -9.773438 2.210938 -10.085938 2.734375 -10.296875 C 3.265625 -10.503906 3.832031 -10.609375 4.4375 -10.609375 Z M 4.4375 -10.609375 "/></g></g></g><g fill="#6c1f2b" fill-opacity="1"><g transform="translate(71.180733, 22.21267)"><g><path d="M 4.53125 -13.59375 L 4.53125 -10.328125 L 6.890625 -10.328125 L 6.890625 -9.921875 L 4.53125 -9.921875 L 4.53125 -1.859375 C 4.53125 -1.460938 4.601562 -1.179688 4.75 -1.015625 C 4.894531 -0.847656 5.113281 -0.765625 5.40625 -0.765625 C 5.644531 -0.765625 5.882812 -0.851562 6.125 -1.03125 C 6.363281 -1.207031 6.578125 -1.515625 6.765625 -1.953125 L 7.109375 -1.78125 C 6.898438 -1.175781 6.578125 -0.679688 6.140625 -0.296875 C 5.703125 0.0859375 5.113281 0.28125 4.375 0.28125 C 3.9375 0.28125 3.550781 0.222656 3.21875 0.109375 C 2.882812 -0.00390625 2.601562 -0.175781 2.375 -0.40625 C 2.082031 -0.695312 1.890625 -1.054688 1.796875 -1.484375 C 1.703125 -1.921875 1.65625 -2.484375 1.65625 -3.171875 L 1.65625 -9.921875 L -0.015625 -9.921875 L -0.015625 -10.328125 L 1.65625 -10.328125 L 1.65625 -12.953125 C 2.21875 -12.953125 2.734375 -13.003906 3.203125 -13.109375 C 3.671875 -13.210938 4.113281 -13.375 4.53125 -13.59375 Z M 4.53125 -13.59375 "/></g></g></g><g clip-path="url(#a6cb463edf)"><g fill="#6c1f2b" fill-opacity="1"><g transform="translate(78.206729, 22.21267)"><g><path d="M 3.078125 -15.46875 C 3.628906 -15.46875 4.066406 -15.332031 4.390625 -15.0625 C 4.722656 -14.789062 4.890625 -14.414062 4.890625 -13.9375 C 4.890625 -13.457031 4.722656 -13.082031 4.390625 -12.8125 C 4.066406 -12.539062 3.628906 -12.40625 3.078125 -12.40625 C 2.515625 -12.40625 2.066406 -12.539062 1.734375 -12.8125 C 1.410156 -13.082031 1.25 -13.457031 1.25 -13.9375 C 1.25 -14.414062 1.410156 -14.789062 1.734375 -15.0625 C 2.066406 -15.332031 2.515625 -15.46875 3.078125 -15.46875 Z M 4.625 -10.546875 L 4.625 -1.859375 C 4.625 -1.296875 4.722656 -0.914062 4.921875 -0.71875 C 5.117188 -0.519531 5.445312 -0.421875 5.90625 -0.421875 L 5.90625 0 C 5.664062 -0.0078125 5.289062 -0.0234375 4.78125 -0.046875 C 4.28125 -0.0664062 3.769531 -0.078125 3.25 -0.078125 C 2.726562 -0.078125 2.203125 -0.0664062 1.671875 -0.046875 C 1.140625 -0.0234375 0.742188 -0.0078125 0.484375 0 L 0.484375 -0.421875 C 0.941406 -0.421875 1.265625 -0.519531 1.453125 -0.71875 C 1.648438 -0.914062 1.75 -1.296875 1.75 -1.859375 L 1.75 -8.140625 C 1.75 -8.742188 1.660156 -9.1875 1.484375 -9.46875 C 1.304688 -9.757812 0.972656 -9.90625 0.484375 -9.90625 L 0.484375 -10.328125 C 0.910156 -10.285156 1.320312 -10.265625 1.71875 -10.265625 C 2.28125 -10.265625 2.800781 -10.285156 3.28125 -10.328125 C 3.769531 -10.378906 4.21875 -10.453125 4.625 -10.546875 Z M 4.625 -10.546875 "/></g></g></g></g></g></g></svg>